<svg width="149" height="130" viewBox="0 0 149 130" fill="none" xmlns="http://www.w3.org/2000/svg">
<g filter="url(#filter0_d)">
<path d="M118 58.3889C118 76.5821 113.627 88.913 106.022 96.7038C98.4237 104.487 87.3449 108 73.3554 108C59.3673 108 48.7581 104.489 41.6136 96.7351C34.4441 88.9543 30.5 76.6201 30.5 58.3889C30.5 40.1493 34.4472 28.7997 41.5502 21.9685C48.6621 15.1287 59.2643 12.5 73.3554 12.5C87.4436 12.5 98.5186 15.1274 106.087 21.9979C113.626 28.8419 118 40.1906 118 58.3889Z" fill="#E7D856"/>
<path d="M118 58.3889C118 76.5821 113.627 88.913 106.022 96.7038C98.4237 104.487 87.3449 108 73.3554 108C59.3673 108 48.7581 104.489 41.6136 96.7351C34.4441 88.9543 30.5 76.6201 30.5 58.3889C30.5 40.1493 34.4472 28.7997 41.5502 21.9685C48.6621 15.1287 59.2643 12.5 73.3554 12.5C87.4436 12.5 98.5186 15.1274 106.087 21.9979C113.626 28.8419 118 40.1906 118 58.3889Z" fill="url(#paint0_linear)"/>
<path d="M118 58.3889C118 76.5821 113.627 88.913 106.022 96.7038C98.4237 104.487 87.3449 108 73.3554 108C59.3673 108 48.7581 104.489 41.6136 96.7351C34.4441 88.9543 30.5 76.6201 30.5 58.3889C30.5 40.1493 34.4472 28.7997 41.5502 21.9685C48.6621 15.1287 59.2643 12.5 73.3554 12.5C87.4436 12.5 98.5186 15.1274 106.087 21.9979C113.626 28.8419 118 40.1906 118 58.3889Z" stroke="black" stroke-width="3"/>
<mask id="path-2-inside-1" fill="white">
<path fill-rule="evenodd" clip-rule="evenodd" d="M74.4994 70.0003C67.997 70.0263 61.9617 71.6724 56.9543 74.4722C47.4809 75.0476 40 81.9549 40 90.3911C40 93.8438 41.2531 97.0404 43.383 99.6517C45.5302 112.334 58.7734 122.064 74.7427 122C90.7627 121.936 103.947 112.038 105.911 99.2801C107.862 96.7398 109 93.6818 109 90.3911C109 82.0545 101.695 75.211 92.3806 74.4952C87.2894 71.6352 81.1293 69.9738 74.4994 70.0003Z"/>
</mask>
<path fill-rule="evenodd" clip-rule="evenodd" d="M74.4994 70.0003C67.997 70.0263 61.9617 71.6724 56.9543 74.4722C47.4809 75.0476 40 81.9549 40 90.3911C40 93.8438 41.2531 97.0404 43.383 99.6517C45.5302 112.334 58.7734 122.064 74.7427 122C90.7627 121.936 103.947 112.038 105.911 99.2801C107.862 96.7398 109 93.6818 109 90.3911C109 82.0545 101.695 75.211 92.3806 74.4952C87.2894 71.6352 81.1293 69.9738 74.4994 70.0003Z" fill="#E4DEDE"/>
<path fill-rule="evenodd" clip-rule="evenodd" d="M74.4994 70.0003C67.997 70.0263 61.9617 71.6724 56.9543 74.4722C47.4809 75.0476 40 81.9549 40 90.3911C40 93.8438 41.2531 97.0404 43.383 99.6517C45.5302 112.334 58.7734 122.064 74.7427 122C90.7627 121.936 103.947 112.038 105.911 99.2801C107.862 96.7398 109 93.6818 109 90.3911C109 82.0545 101.695 75.211 92.3806 74.4952C87.2894 71.6352 81.1293 69.9738 74.4994 70.0003Z" fill="url(#paint1_linear)"/>
<path d="M56.9543 74.4722L57.1362 77.4666L57.8203 77.4251L58.4184 77.0906L56.9543 74.4722ZM74.4994 70.0003L74.5114 73.0003L74.4994 70.0003ZM43.383 99.6517L46.3409 99.1509L46.2086 98.3696L45.7077 97.7555L43.383 99.6517ZM74.7427 122L74.7307 119H74.7307L74.7427 122ZM105.911 99.2801L103.532 97.453L103.063 98.0633L102.946 98.8237L105.911 99.2801ZM92.3806 74.4952L90.9113 77.1108L91.4895 77.4356L92.1507 77.4864L92.3806 74.4952ZM58.4184 77.0906C62.971 74.5452 68.5048 73.0243 74.5114 73.0003L74.4874 67.0003C67.4892 67.0284 60.9525 68.7996 55.4903 71.8537L58.4184 77.0906ZM43 90.3911C43 83.8823 48.8814 77.9681 57.1362 77.4666L56.7724 71.4777C46.0804 72.1271 37 80.0274 37 90.3911H43ZM45.7077 97.7555C43.9758 95.6321 43 93.0939 43 90.3911H37C37 94.5938 38.5304 98.4487 41.0582 101.548L45.7077 97.7555ZM74.7307 119C59.8131 119.059 48.1795 110.011 46.3409 99.1509L40.4251 100.152C42.8809 114.658 57.7338 125.068 74.7547 125L74.7307 119ZM102.946 98.8237C101.266 109.741 89.6973 118.94 74.7307 119L74.7547 125C91.8281 124.931 106.629 114.335 108.876 99.7365L102.946 98.8237ZM106 90.3911C106 92.9686 105.113 95.3936 103.532 97.453L108.291 101.107C110.611 98.086 112 94.395 112 90.3911H106ZM92.1507 77.4864C100.26 78.1096 106 83.9576 106 90.3911H112C112 80.1515 103.13 72.3125 92.6105 71.504L92.1507 77.4864ZM74.5114 73.0003C80.6361 72.9758 86.2839 74.5113 90.9113 77.1108L93.8499 71.8796C88.2949 68.7591 81.6226 66.9718 74.4874 67.0003L74.5114 73.0003Z" fill="black" mask="url(#path-2-inside-1)"/>
<path d="M75.5 97C72.2233 100.188 64.1061 105 59.4722 105C54.8383 105 50.3942 103.209 47.1175 100.021C43.8408 96.8327 42 92.5087 42 88" stroke="black" stroke-width="2"/>
<path d="M107 87C107 91.5087 106.104 95.8327 102.827 99.0208C99.5503 102.209 95.1061 104 90.4722 104C85.8383 104 78.7767 100.688 75.5 97.5" stroke="black" stroke-width="2"/>
<path d="M73.9 90.7348C74.224 92.2782 76.4049 92.3402 76.8161 90.8176L77.8741 86.8999C77.9913 86.4661 78.2232 86.0718 78.5455 85.7586L83.3653 81.0758C84.3313 80.1373 83.6669 78.5 82.3201 78.5H68.2347C66.8578 78.5 66.2084 80.1998 67.2345 81.1179L72.3445 85.6899C72.7415 86.0452 73.0147 86.5179 73.1241 87.0393L73.9 90.7348Z" fill="#1A1818" stroke="black"/>
<path d="M75.5 90.5V98" stroke="black" stroke-width="2"/>
<mask id="path-8-inside-2" fill="white">
<path d="M62.2473 53.9736C60.819 56.6798 58.3169 58.5404 55.2914 59.1462C52.266 59.7519 48.9649 59.0532 46.1146 57.2037C43.2642 55.3542 41.0979 52.5054 40.0924 49.2841C39.0868 46.0627 39.3243 42.7326 40.7527 40.0264L51.5 47L62.2473 53.9736Z"/>
</mask>
<path d="M62.2473 53.9736C60.819 56.6798 58.3169 58.5404 55.2914 59.1462C52.266 59.7519 48.9649 59.0532 46.1146 57.2037C43.2642 55.3542 41.0979 52.5054 40.0924 49.2841C39.0868 46.0627 39.3243 42.7326 40.7527 40.0264L51.5 47L62.2473 53.9736Z" fill="#E4DEDE" stroke="black" stroke-width="2" mask="url(#path-8-inside-2)"/>
<path d="M54.8635 53.2745C54.8635 56.0621 53.1032 58.1078 51.1661 58.1078C49.2291 58.1078 47.4688 56.0621 47.4688 53.2745C47.4688 50.4869 49.2291 48.4412 51.1661 48.4412C53.1032 48.4412 54.8635 50.4869 54.8635 53.2745Z" fill="#FBF8AE"/>
<path d="M54.8635 53.2745C54.8635 56.0621 53.1032 58.1078 51.1661 58.1078C49.2291 58.1078 47.4688 56.0621 47.4688 53.2745C47.4688 50.4869 49.2291 48.4412 51.1661 48.4412C53.1032 48.4412 54.8635 50.4869 54.8635 53.2745Z" fill="url(#paint2_linear)"/>
<path d="M54.8635 53.2745C54.8635 56.0621 53.1032 58.1078 51.1661 58.1078C49.2291 58.1078 47.4688 56.0621 47.4688 53.2745C47.4688 50.4869 49.2291 48.4412 51.1661 48.4412C53.1032 48.4412 54.8635 50.4869 54.8635 53.2745Z" stroke="black"/>
<path d="M54.5993 64.1666C54.2787 64.1927 54.0459 64.4617 53.8297 64.6535C53.686 64.8391 53.4086 64.9839 53.1827 65.0728C52.8959 65.1857 52.4272 65.2682 52.2268 65.5069C52.1558 65.5915 51.9288 66.1058 52.0736 66.1338C52.4592 66.2085 52.7605 66.2803 53.1173 66.4489C53.6551 66.7031 54.2928 66.4036 54.754 66.1477C55.1325 65.9377 55.784 65.6452 55.8753 65.1931C55.9231 64.9566 55.9069 64.6358 55.7009 64.4653C55.3883 64.2066 55.0051 64.1336 54.5993 64.1666Z" fill="black" fill-opacity="0.8"/>
<path d="M55.3297 71.5105C55.1135 71.4896 54.887 71.715 54.6928 71.8685C54.5476 72.0265 54.3266 72.126 54.1546 72.1792C53.9364 72.2467 53.608 72.2589 53.4111 72.4597C53.3413 72.5309 53.0505 72.9931 53.1371 73.0408C53.3676 73.1679 53.5441 73.2801 53.7297 73.4934C54.0097 73.8149 54.5084 73.6183 54.8801 73.4382C55.1851 73.2905 55.6909 73.1025 55.8761 72.6807C55.9729 72.46 56.0515 72.1492 55.9646 71.9556C55.8327 71.662 55.6033 71.5369 55.3297 71.5105Z" fill="black" fill-opacity="0.8"/>
<path d="M56.7176 66.5207C56.4943 66.5212 56.2229 66.8808 55.9961 67.1315C55.8201 67.3816 55.5735 67.5577 55.3853 67.6595C55.1464 67.7886 54.8005 67.8532 54.5638 68.1729C54.4798 68.2863 54.1052 68.9989 54.1887 69.0559C54.411 69.2076 54.5789 69.3454 54.7412 69.6286C54.9858 70.0556 55.5381 69.6989 55.9548 69.3844C56.2968 69.1263 56.8552 68.7811 57.113 68.1421C57.2479 67.8078 57.3773 67.3452 57.3155 67.0765C57.2218 66.6689 57.0003 66.52 56.7176 66.5207Z" fill="black" fill-opacity="0.8"/>
<path d="M39.0787 56.3344C38.835 56.1303 38.8096 55.7798 38.7507 55.5013C38.7469 55.2691 38.6101 54.9936 38.4812 54.7928C38.3175 54.5378 37.9883 54.2036 37.9707 53.8961C37.9644 53.7871 38.0921 53.2416 38.2263 53.3015C38.5834 53.4611 38.8707 53.575 39.2614 53.6422C39.8504 53.7435 40.185 54.3497 40.4032 54.8199C40.5823 55.2058 40.9322 55.8142 40.7324 56.2321C40.6279 56.4507 40.4206 56.701 40.1507 56.7214C39.7411 56.7523 39.387 56.5926 39.0787 56.3344Z" fill="black" fill-opacity="0.8"/>
<path d="M42.5606 58.8086C42.373 58.7021 42.3263 58.3905 42.2621 58.1555C42.2403 57.9448 42.1217 57.7382 42.0148 57.597C41.8791 57.4179 41.6208 57.2206 41.5831 56.9458C41.5697 56.8483 41.6143 56.3085 41.7132 56.3193C41.9767 56.348 42.1874 56.3579 42.4667 56.2914C42.8878 56.191 43.1722 56.6347 43.3639 56.9925C43.5213 57.2861 43.8166 57.7269 43.7111 58.1737C43.6558 58.4075 43.5312 58.7039 43.3437 58.8108C43.0593 58.9731 42.7979 58.9434 42.5606 58.8086Z" fill="black" fill-opacity="0.8"/>
<path d="M44.7954 74.6745C44.52 74.5311 44.3381 74.2207 44.4024 73.6121C44.5988 73.2182 44.6429 72.8853 44.8997 72.489C45.2112 72.0084 45.541 72.1998 45.6947 72.3043C45.8629 72.4187 45.8346 72.6547 45.7941 73.0291C45.7477 73.4576 45.5763 73.8625 45.3391 74.338C45.1465 74.7242 44.9193 74.739 44.7954 74.6745Z" fill="#111111" fill-opacity="0.8"/>
<path d="M54.978 61.398C54.781 61.9868 54.4072 62.5009 53.7281 62.7356C53.3083 62.6032 52.9379 62.7153 52.5232 62.4735C52.0202 62.1801 52.2784 61.4634 52.4161 61.1205C52.5667 60.7454 52.8296 60.6605 53.2473 60.5179C53.7253 60.3547 54.1607 60.4347 54.6675 60.5946C55.079 60.7244 55.0667 61.133 54.978 61.398Z" fill="#111111" fill-opacity="0.8"/>
<path d="M52.3782 69.5477C51.7579 69.691 51.1112 69.649 50.5511 69.2083C50.4489 68.7915 50.1574 68.5429 50.1541 68.0732C50.15 67.5034 50.9147 67.3442 51.2879 67.2797C51.6961 67.2092 51.9077 67.3829 52.2507 67.6548C52.6431 67.966 52.7995 68.3685 52.9229 68.8718C53.0231 69.2805 52.6575 69.4831 52.3782 69.5477Z" fill="#111111" fill-opacity="0.8"/>
<path d="M46.5157 60.6103C46.6142 60.3159 46.5274 59.9725 46.0521 59.5981C45.6323 59.4657 45.3659 59.2671 44.9008 59.1759C44.3366 59.0652 44.2324 59.4315 44.1947 59.6127C44.1534 59.811 44.3401 59.9538 44.6332 60.1835C44.9686 60.4463 45.378 60.6041 45.8848 60.764C46.2963 60.8938 46.4713 60.7428 46.5157 60.6103Z" fill="#111111" fill-opacity="0.8"/>
<path d="M34.6224 64.4606C34.8195 63.8718 34.8283 63.2426 34.421 62.6651C34.0012 62.5327 33.7695 62.2306 33.2875 62.1896C32.7029 62.1399 32.478 62.8671 32.3818 63.2231C32.2765 63.6124 32.4378 63.8312 32.6894 64.185C32.9773 64.5898 33.378 64.7735 33.8848 64.9334C34.2963 65.0632 34.5337 64.7257 34.6224 64.4606Z" fill="#111111" fill-opacity="0.8"/>
<path d="M35.6224 59.4606C35.8195 58.8718 35.8283 58.2426 35.421 57.6651C35.0012 57.5327 34.7695 57.2306 34.2875 57.1896C33.7029 57.1399 33.478 57.8671 33.3818 58.2231C33.2765 58.6124 33.4378 58.8312 33.6894 59.185C33.9773 59.5898 34.378 59.7735 34.8848 59.9334C35.2963 60.0632 35.5337 59.7257 35.6224 59.4606Z" fill="#111111" fill-opacity="0.8"/>
<path d="M45.9955 74.7869C45.7652 75.0051 45.7618 75.3564 45.7206 75.638C45.7314 75.87 45.6122 76.153 45.4961 76.3611C45.3488 76.6254 45.0412 76.9784 45.0429 77.2863C45.0435 77.3955 45.2053 77.9325 45.3355 77.8647C45.6819 77.6842 45.9615 77.5535 46.3472 77.4633C46.9287 77.3273 47.2246 76.7024 47.4128 76.2201C47.5673 75.8243 47.8783 75.1963 47.6526 74.791C47.5346 74.579 47.3119 74.3415 47.0412 74.3372C46.6305 74.3306 46.287 74.5109 45.9955 74.7869Z" fill="black" fill-opacity="0.8"/>
<path d="M47.5281 69.3398C47.3476 69.4572 47.3206 69.771 47.2713 70.0094C47.2627 70.221 47.1574 70.4343 47.0595 70.5815C46.9354 70.7684 46.69 70.9806 46.6696 71.2571C46.6624 71.3552 46.7408 71.8914 46.8389 71.8747C47.1 71.8304 47.3097 71.8081 47.5927 71.858C48.0193 71.9332 48.2753 71.4734 48.4442 71.105C48.5827 70.8026 48.8499 70.3451 48.7164 69.9053C48.6466 69.6753 48.5035 69.3869 48.3097 69.2912C48.0156 69.1461 47.7566 69.1912 47.5281 69.3398Z" fill="black" fill-opacity="0.8"/>
<path d="M34.7415 69.9423C34.8854 69.7749 34.7785 69.3421 34.7283 69.0122C34.6457 68.7207 34.6669 68.4237 34.7087 68.2179C34.7617 67.9566 34.9345 67.6567 34.8365 67.2753C34.8018 67.14 34.4846 66.4043 34.3859 66.4303C34.1232 66.4996 33.9066 66.537 33.5795 66.4773C33.0863 66.3872 33.0094 67.0284 32.9869 67.5411C32.9685 67.9618 32.8786 68.6001 33.2135 69.2014C33.3887 69.516 33.6682 69.9085 33.9189 70.0341C34.2994 70.2246 34.5594 70.1542 34.7415 69.9423Z" fill="black" fill-opacity="0.8"/>
<path d="M38.1084 79.4457C38.1739 79.1307 38.4698 78.932 38.687 78.7405C38.889 78.6202 39.0671 78.3623 39.1833 78.1488C39.3309 77.8779 39.4707 77.4227 39.7324 77.2526C39.8252 77.1922 40.3639 77.0288 40.3738 77.1758C40.4003 77.5674 40.4344 77.875 40.5576 78.2492C40.7435 78.8134 40.3674 79.4101 40.0563 79.8371C39.801 80.1874 39.4301 80.7987 38.9699 80.835C38.7291 80.854 38.4126 80.7995 38.2688 80.5745C38.0506 80.2333 38.0255 79.8443 38.1084 79.4457Z" fill="black" fill-opacity="0.8"/>
<path d="M35.3394 74.2084C35.5376 74.297 35.6238 74.6052 35.7173 74.8349C35.766 75.0443 35.9093 75.2402 36.0327 75.3714C36.1893 75.5381 36.4688 75.7109 36.5414 75.9831C36.5672 76.0796 36.5931 76.626 36.4944 76.6248C36.2316 76.6217 36.0231 76.6323 35.757 76.7264C35.3558 76.8683 35.0187 76.4506 34.7839 76.1102C34.5913 75.8308 34.2438 75.4171 34.2899 74.9582C34.314 74.718 34.3983 74.4083 34.5689 74.2826C34.8277 74.0919 35.0886 74.0962 35.3394 74.2084Z" fill="black" fill-opacity="0.8"/>
<path d="M51.9004 74.7222C51.6774 74.7349 51.3839 74.392 51.1419 74.1552C50.9504 73.916 50.6932 73.7549 50.4989 73.6645C50.2523 73.5497 49.903 73.5057 49.6467 73.2006C49.5558 73.0924 49.1371 72.4033 49.2168 72.3415C49.4292 72.177 49.5881 72.0295 49.7322 71.7371C49.9495 71.2964 50.5233 71.6198 50.959 71.909C51.3165 72.1463 51.8956 72.4578 52.1931 73.0803C52.3487 73.4059 52.507 73.8601 52.4622 74.1319C52.3943 74.5443 52.1826 74.7061 51.9004 74.7222Z" fill="black" fill-opacity="0.8"/>
<path d="M38.2959 81.089C38.4746 81.3433 38.4894 81.697 38.1405 82.1899C37.7757 82.4353 37.5769 82.7008 37.1568 82.9196C36.6472 83.1849 36.4426 82.8633 36.3547 82.7002C36.2584 82.5219 36.3966 82.3323 36.6122 82.0294C36.8588 81.6828 37.2064 81.4161 37.6468 81.1198C38.0045 80.8792 38.2155 80.9745 38.2959 81.089Z" fill="#111111" fill-opacity="0.8"/>
<path d="M39.6099 73.6242C39.8436 74.2003 39.892 74.8278 39.5217 75.4283C39.1111 75.5854 38.8987 75.9006 38.4203 75.9701C37.8399 76.0544 37.5696 75.3419 37.4512 74.9923C37.3217 74.6099 37.4689 74.382 37.6978 74.0139C37.9597 73.5928 38.3481 73.3857 38.8439 73.1961C39.2465 73.0421 39.5047 73.365 39.6099 73.6242Z" fill="#111111" fill-opacity="0.8"/>
<path d="M43.3006 77.5503C43.5066 78.058 43.5492 78.6112 43.2229 79.1405C42.8609 79.279 42.6737 79.5569 42.2519 79.6181C41.7403 79.6924 41.5021 79.0643 41.3977 78.7562C41.2835 78.4191 41.4133 78.2182 41.6151 77.8938C41.846 77.5226 42.1883 77.34 42.6254 77.1729C42.9803 77.0371 43.2078 77.3217 43.3006 77.5503Z" fill="#111111" fill-opacity="0.8"/>
<path d="M42.2712 81.0513C41.9965 80.9058 41.637 80.9316 41.1711 81.3285C40.9575 81.7128 40.7077 81.9372 40.5264 82.3725C40.3064 82.9004 40.6517 83.0636 40.8252 83.131C41.015 83.2047 41.1938 83.0481 41.4799 82.803C41.8072 82.5227 42.0442 82.1528 42.3021 81.6888C42.5115 81.3121 42.3948 81.1168 42.2712 81.0513Z" fill="#111111" fill-opacity="0.8"/>
<path d="M49.5006 61.6228C49.5884 61.3247 49.4915 60.9775 49.0096 60.6001C48.5905 60.4674 48.3208 60.2674 47.8581 60.1765C47.2969 60.0662 47.2058 60.437 47.1744 60.6205C47.14 60.8212 47.3291 60.9652 47.6263 61.1967C47.9663 61.4615 48.376 61.62 48.882 61.7802C49.293 61.9103 49.461 61.757 49.5006 61.6228Z" fill="#111111" fill-opacity="0.8"/>
<path d="M40.0316 84.6638C39.7979 84.0878 39.3925 83.5968 38.6999 83.4028C38.2893 83.5598 37.9125 83.4699 37.5138 83.7358C37.0301 84.0585 37.3329 84.7586 37.4919 85.0926C37.6658 85.4581 37.9336 85.5273 38.3595 85.6449C38.8468 85.7794 39.2764 85.6738 39.7722 85.4841C40.1748 85.3302 40.1368 84.9231 40.0316 84.6638Z" fill="#111111" fill-opacity="0.8"/>
<path d="M37.0316 71.6638C36.7979 71.0878 36.3925 70.5968 35.6999 70.4028C35.2893 70.5598 34.9125 70.4699 34.5138 70.7358C34.0301 71.0585 34.3329 71.7586 34.4919 72.0926C34.6658 72.4581 34.9336 72.5273 35.3595 72.6449C35.8468 72.7794 36.2764 72.6738 36.7722 72.4841C37.1748 72.3302 37.1368 71.9231 37.0316 71.6638Z" fill="#111111" fill-opacity="0.8"/>
<path d="M36.9702 79.089C37.0514 78.7659 36.9504 78.3056 36.8613 78C36.7539 78 36.7058 78.0577 36.5994 78.0748C36.5249 78.0868 36.4483 78.0696 36.376 78.0957C36.3089 78.12 36.2498 78.1502 36.1789 78.1616C35.923 78.2027 35.7023 78.2631 35.5033 78.4562C35.3896 78.5666 35.3081 78.7287 35.2097 78.8556C35.103 78.9932 35.0507 79.1629 35.0167 79.3373C34.8755 80.0621 35.6645 80.1214 36.0865 79.8533C36.2794 79.7308 36.4691 79.5996 36.6573 79.4689C36.7852 79.38 36.9283 79.2559 36.9702 79.089Z" fill="#111111" fill-opacity="0.8"/>
<path d="M57.9851 60.5445C58.0257 60.383 57.9752 60.1528 57.9306 60C57.877 60 57.8529 60.0288 57.7997 60.0374C57.7625 60.0434 57.7241 60.0348 57.688 60.0479C57.6544 60.06 57.6249 60.0751 57.5894 60.0808C57.4615 60.1013 57.3511 60.1316 57.2517 60.2281C57.1948 60.2833 57.1541 60.3643 57.1049 60.4278C57.0515 60.4966 57.0253 60.5814 57.0083 60.6686C56.9377 61.0311 57.3323 61.0607 57.5433 60.9267C57.6397 60.8654 57.7346 60.7998 57.8286 60.7345C57.8926 60.69 57.9641 60.6279 57.9851 60.5445Z" fill="#111111" fill-opacity="0.8"/>
<path d="M40.1342 58.1267C40.5052 58.4389 40.5107 58.942 40.577 59.3451C40.5597 59.6772 40.7517 60.0824 40.9386 60.3804C41.1759 60.7587 41.6713 61.2642 41.6685 61.705C41.6675 61.8613 41.4069 62.6301 41.1974 62.5331C40.6394 62.2747 40.1891 62.0875 39.5679 61.9584C38.6313 61.7636 38.1548 60.869 37.8516 60.1785C37.6027 59.6119 37.1018 58.7127 37.4653 58.1325C37.6555 57.829 38.0141 57.4889 38.4501 57.4827C39.1116 57.4733 39.6648 57.7315 40.1342 58.1267Z" fill="black" fill-opacity="0.8"/>
<path d="M41.0828 75.5716C40.9976 75.3675 41.2323 74.9885 41.3814 74.69C41.5496 74.4379 41.6208 74.1485 41.6444 73.9396C41.6745 73.6744 41.6026 73.3351 41.813 73.0023C41.8876 72.8843 42.4153 72.2821 42.501 72.3375C42.7292 72.4849 42.9235 72.5878 43.2525 72.6325C43.7487 72.6997 43.6245 73.3342 43.4881 73.8293C43.3761 74.2357 43.2651 74.8715 42.7621 75.3401C42.4989 75.5854 42.1126 75.8724 41.8358 75.9142C41.4158 75.9775 41.1906 75.8298 41.0828 75.5716Z" fill="black" fill-opacity="0.8"/>
<path d="M57.9851 64.089C58.0257 63.7659 57.9752 63.3056 57.9306 63C57.877 63 57.8529 63.0577 57.7997 63.0748C57.7625 63.0868 57.7241 63.0696 57.688 63.0957C57.6544 63.12 57.6249 63.1502 57.5894 63.1616C57.4615 63.2027 57.3511 63.2631 57.2517 63.4562C57.1948 63.5666 57.1541 63.7287 57.1049 63.8556C57.0515 63.9932 57.0253 64.1629 57.0083 64.3373C56.9377 65.0621 57.3323 65.1214 57.5433 64.8533C57.6397 64.7308 57.7346 64.5996 57.8286 64.4689C57.8926 64.38 57.9641 64.2559 57.9851 64.089Z" fill="#111111" fill-opacity="0.8"/>
<path d="M47.5488 63.5225C47.2477 63.703 47.2025 64.1854 47.1203 64.552C47.1061 64.8773 46.9304 65.2052 46.7672 65.4316C46.5601 65.7189 46.1508 66.0452 46.1168 66.4704C46.1048 66.6211 46.2355 67.4455 46.3991 67.4199C46.8347 67.3518 47.1844 67.3174 47.6564 67.3941C48.368 67.5098 48.795 66.8029 49.0766 66.2364C49.3077 65.7715 49.7532 65.0681 49.5306 64.392C49.4142 64.0382 49.1756 63.5948 48.8523 63.4477C48.3617 63.2246 47.9297 63.294 47.5488 63.5225Z" fill="black" fill-opacity="0.8"/>
<path d="M45.1418 62.4799C45.3367 62.9227 45.2281 63.4576 44.4762 64.0755C43.7913 64.317 43.3686 64.6459 42.6038 64.8283C41.6761 65.0495 41.4643 64.497 41.3824 64.2223C41.2929 63.9218 41.5888 63.6856 42.0527 63.3064C42.5835 62.8725 43.2484 62.593 44.0754 62.3015C44.7469 62.0648 45.0541 62.2806 45.1418 62.4799Z" fill="#111111" fill-opacity="0.8"/>
<path d="M44.1175 67.5506C43.6685 67.36 43.0947 67.4214 42.3745 68.0236C42.0572 68.5905 41.6717 68.9301 41.4095 69.5682C41.0913 70.3422 41.6544 70.5534 41.9365 70.6386C42.2452 70.7317 42.5213 70.4944 42.9635 70.1227C43.4694 69.6974 43.8249 69.1496 44.208 68.4651C44.519 67.9093 44.3196 67.6364 44.1175 67.5506Z" fill="#111111" fill-opacity="0.8"/>
<path d="M37.1136 62.3041C36.7281 62.5848 36.5429 63.0748 36.8402 63.9158C37.2753 64.4162 37.4519 64.8738 37.9824 65.3603C38.626 65.9505 39.0815 65.5866 39.2888 65.3953C39.5156 65.1861 39.3951 64.8609 39.2106 64.3437C38.9996 63.7519 38.6002 63.2289 38.0748 62.6247C37.6481 62.1342 37.2872 62.1778 37.1136 62.3041Z" fill="#111111" fill-opacity="0.8"/>
<path d="M38.255 70.8591C38.6974 70.6563 38.9923 70.2114 38.8969 69.3335C38.5875 68.7631 38.5211 68.2826 38.1152 67.708C37.6228 67.0109 37.0927 67.2821 36.8455 67.4306C36.5751 67.5931 36.6174 67.9336 36.6776 68.4739C36.7466 69.092 37.0158 69.6779 37.3894 70.3666C37.6927 70.9258 38.0559 70.9503 38.255 70.8591Z" fill="#111111" fill-opacity="0.8"/>
<path d="M62 54V73" stroke="black"/>
<mask id="path-45-inside-3" fill="white">
<path d="M85.7527 53.9736C87.181 56.6798 89.6831 58.5404 92.7086 59.1462C95.734 59.7519 99.0351 59.0532 101.885 57.2037C104.736 55.3542 106.902 52.5054 107.908 49.2841C108.913 46.0627 108.676 42.7326 107.247 40.0264L96.5 47L85.7527 53.9736Z"/>
</mask>
<path d="M85.7527 53.9736C87.181 56.6798 89.6831 58.5404 92.7086 59.1462C95.734 59.7519 99.0351 59.0532 101.885 57.2037C104.736 55.3542 106.902 52.5054 107.908 49.2841C108.913 46.0627 108.676 42.7326 107.247 40.0264L96.5 47L85.7527 53.9736Z" fill="#E4DEDE" stroke="black" stroke-width="2" mask="url(#path-45-inside-3)"/>
<path d="M93.1365 53.2745C93.1365 56.0621 94.8968 58.1078 96.8339 58.1078C98.7709 58.1078 100.531 56.0621 100.531 53.2745C100.531 50.4869 98.7709 48.4412 96.8339 48.4412C94.8968 48.4412 93.1365 50.4869 93.1365 53.2745Z" fill="#FBF8AE"/>
<path d="M93.1365 53.2745C93.1365 56.0621 94.8968 58.1078 96.8339 58.1078C98.7709 58.1078 100.531 56.0621 100.531 53.2745C100.531 50.4869 98.7709 48.4412 96.8339 48.4412C94.8968 48.4412 93.1365 50.4869 93.1365 53.2745Z" fill="url(#paint3_linear)"/>
<path d="M93.1365 53.2745C93.1365 56.0621 94.8968 58.1078 96.8339 58.1078C98.7709 58.1078 100.531 56.0621 100.531 53.2745C100.531 50.4869 98.7709 48.4412 96.8339 48.4412C94.8968 48.4412 93.1365 50.4869 93.1365 53.2745Z" stroke="black"/>
<path d="M93.4007 64.1666C93.7213 64.1927 93.9541 64.4617 94.1703 64.6535C94.314 64.8391 94.5914 64.9839 94.8173 65.0728C95.1041 65.1857 95.5728 65.2682 95.7732 65.5069C95.8442 65.5915 96.0712 66.1058 95.9264 66.1338C95.5408 66.2085 95.2395 66.2803 94.8827 66.4489C94.3449 66.7031 93.7072 66.4036 93.246 66.1477C92.8675 65.9377 92.216 65.6452 92.1247 65.1931C92.0769 64.9566 92.0931 64.6358 92.2991 64.4653C92.6117 64.2066 92.9949 64.1336 93.4007 64.1666Z" fill="black" fill-opacity="0.8"/>
<path d="M92.6703 71.5105C92.8865 71.4896 93.113 71.715 93.3072 71.8685C93.4524 72.0265 93.6734 72.126 93.8454 72.1792C94.0636 72.2467 94.392 72.2589 94.5889 72.4597C94.6587 72.5309 94.9495 72.9931 94.8629 73.0408C94.6324 73.1679 94.4559 73.2801 94.2703 73.4934C93.9903 73.8149 93.4916 73.6183 93.1199 73.4382C92.8149 73.2905 92.3091 73.1025 92.1239 72.6807C92.0271 72.46 91.9485 72.1492 92.0354 71.9556C92.1673 71.662 92.3967 71.5369 92.6703 71.5105Z" fill="black" fill-opacity="0.8"/>
<path d="M91.2824 66.5207C91.5057 66.5212 91.7771 66.8808 92.0039 67.1315C92.1799 67.3816 92.4265 67.5577 92.6147 67.6595C92.8536 67.7886 93.1995 67.8532 93.4362 68.1729C93.5202 68.2863 93.8948 68.9989 93.8113 69.0559C93.589 69.2076 93.4211 69.3454 93.2588 69.6286C93.0142 70.0556 92.4619 69.6989 92.0452 69.3844C91.7032 69.1263 91.1448 68.7811 90.887 68.1421C90.7521 67.8078 90.6227 67.3452 90.6845 67.0765C90.7782 66.6689 90.9997 66.52 91.2824 66.5207Z" fill="black" fill-opacity="0.8"/>
<path d="M108.921 56.3344C109.165 56.1303 109.19 55.7798 109.249 55.5013C109.253 55.2691 109.39 54.9936 109.519 54.7928C109.682 54.5378 110.012 54.2036 110.029 53.8961C110.036 53.7871 109.908 53.2416 109.774 53.3015C109.417 53.4611 109.129 53.575 108.739 53.6422C108.15 53.7435 107.815 54.3497 107.597 54.8199C107.418 55.2058 107.068 55.8142 107.268 56.2321C107.372 56.4507 107.579 56.701 107.849 56.7214C108.259 56.7523 108.613 56.5926 108.921 56.3344Z" fill="black" fill-opacity="0.8"/>
<path d="M105.439 58.8086C105.627 58.7021 105.674 58.3905 105.738 58.1555C105.76 57.9448 105.878 57.7382 105.985 57.597C106.121 57.4179 106.379 57.2206 106.417 56.9458C106.43 56.8483 106.386 56.3085 106.287 56.3193C106.023 56.348 105.813 56.3579 105.533 56.2914C105.112 56.191 104.828 56.6347 104.636 56.9925C104.479 57.2861 104.183 57.7269 104.289 58.1737C104.344 58.4075 104.469 58.7039 104.656 58.8108C104.941 58.9731 105.202 58.9434 105.439 58.8086Z" fill="black" fill-opacity="0.8"/>
<path d="M103.205 74.6745C103.48 74.5311 103.662 74.2207 103.598 73.6121C103.401 73.2182 103.357 72.8853 103.1 72.489C102.789 72.0084 102.459 72.1998 102.305 72.3043C102.137 72.4187 102.165 72.6547 102.206 73.0291C102.252 73.4576 102.424 73.8625 102.661 74.338C102.854 74.7242 103.081 74.739 103.205 74.6745Z" fill="#111111" fill-opacity="0.8"/>
<path d="M93.022 61.398C93.219 61.9868 93.5928 62.5009 94.2719 62.7356C94.6917 62.6032 95.0621 62.7153 95.4768 62.4735C95.9798 62.1801 95.7216 61.4634 95.5839 61.1205C95.4333 60.7454 95.1704 60.6605 94.7527 60.5179C94.2747 60.3547 93.8393 60.4347 93.3325 60.5946C92.921 60.7244 92.9333 61.133 93.022 61.398Z" fill="#111111" fill-opacity="0.8"/>
<path d="M95.6218 69.5477C96.2421 69.691 96.8888 69.649 97.4489 69.2083C97.5511 68.7915 97.8426 68.5429 97.8459 68.0732C97.85 67.5034 97.0853 67.3442 96.7121 67.2797C96.3039 67.2092 96.0923 67.3829 95.7493 67.6548C95.3569 67.966 95.2005 68.3685 95.0771 68.8718C94.9769 69.2805 95.3425 69.4831 95.6218 69.5477Z" fill="#111111" fill-opacity="0.8"/>
<path d="M101.484 60.6103C101.386 60.3159 101.473 59.9725 101.948 59.5981C102.368 59.4657 102.634 59.2671 103.099 59.1759C103.663 59.0652 103.768 59.4315 103.805 59.6127C103.847 59.811 103.66 59.9538 103.367 60.1835C103.031 60.4463 102.622 60.6041 102.115 60.764C101.704 60.8938 101.529 60.7428 101.484 60.6103Z" fill="#111111" fill-opacity="0.8"/>
<path d="M113.378 64.4606C113.181 63.8718 113.172 63.2426 113.579 62.6651C113.999 62.5327 114.231 62.2306 114.712 62.1896C115.297 62.1399 115.522 62.8671 115.618 63.2231C115.723 63.6124 115.562 63.8312 115.311 64.185C115.023 64.5898 114.622 64.7735 114.115 64.9334C113.704 65.0632 113.466 64.7257 113.378 64.4606Z" fill="#111111" fill-opacity="0.8"/>
<path d="M112.378 59.4606C112.181 58.8718 112.172 58.2426 112.579 57.6651C112.999 57.5327 113.231 57.2306 113.712 57.1896C114.297 57.1399 114.522 57.8671 114.618 58.2231C114.723 58.6124 114.562 58.8312 114.311 59.185C114.023 59.5898 113.622 59.7735 113.115 59.9334C112.704 60.0632 112.466 59.7257 112.378 59.4606Z" fill="#111111" fill-opacity="0.8"/>
<path d="M102.004 74.7869C102.235 75.0051 102.238 75.3564 102.279 75.638C102.269 75.87 102.388 76.153 102.504 76.3611C102.651 76.6254 102.959 76.9784 102.957 77.2863C102.956 77.3955 102.795 77.9325 102.665 77.8647C102.318 77.6842 102.039 77.5535 101.653 77.4633C101.071 77.3273 100.775 76.7024 100.587 76.2201C100.433 75.8243 100.122 75.1963 100.347 74.791C100.465 74.579 100.688 74.3415 100.959 74.3372C101.37 74.3306 101.713 74.5109 102.004 74.7869Z" fill="black" fill-opacity="0.8"/>
<path d="M100.472 69.3398C100.652 69.4572 100.679 69.771 100.729 70.0094C100.737 70.221 100.843 70.4343 100.94 70.5815C101.065 70.7684 101.31 70.9806 101.33 71.2571C101.338 71.3552 101.259 71.8914 101.161 71.8747C100.9 71.8304 100.69 71.8081 100.407 71.858C99.9807 71.9332 99.7247 71.4734 99.5558 71.105C99.4173 70.8026 99.1501 70.3451 99.2836 69.9053C99.3534 69.6753 99.4965 69.3869 99.6903 69.2912C99.9844 69.1461 100.243 69.1912 100.472 69.3398Z" fill="black" fill-opacity="0.8"/>
<path d="M113.259 69.9423C113.115 69.7749 113.222 69.3421 113.272 69.0122C113.354 68.7207 113.333 68.4237 113.291 68.2179C113.238 67.9566 113.066 67.6567 113.163 67.2753C113.198 67.14 113.515 66.4043 113.614 66.4303C113.877 66.4996 114.093 66.537 114.421 66.4773C114.914 66.3872 114.991 67.0284 115.013 67.5411C115.031 67.9618 115.121 68.6001 114.787 69.2014C114.611 69.516 114.332 69.9085 114.081 70.0341C113.701 70.2246 113.441 70.1542 113.259 69.9423Z" fill="black" fill-opacity="0.8"/>
<path d="M109.892 79.4457C109.826 79.1307 109.53 78.932 109.313 78.7405C109.111 78.6202 108.933 78.3623 108.817 78.1488C108.669 77.8779 108.529 77.4227 108.268 77.2526C108.175 77.1922 107.636 77.0288 107.626 77.1758C107.6 77.5674 107.566 77.875 107.442 78.2492C107.256 78.8134 107.633 79.4101 107.944 79.8371C108.199 80.1874 108.57 80.7987 109.03 80.835C109.271 80.854 109.587 80.7995 109.731 80.5745C109.949 80.2333 109.975 79.8443 109.892 79.4457Z" fill="black" fill-opacity="0.8"/>
<path d="M112.661 74.2084C112.462 74.297 112.376 74.6052 112.283 74.8349C112.234 75.0443 112.091 75.2402 111.967 75.3714C111.811 75.5381 111.531 75.7109 111.459 75.9831C111.433 76.0796 111.407 76.626 111.506 76.6248C111.768 76.6217 111.977 76.6323 112.243 76.7264C112.644 76.8683 112.981 76.4506 113.216 76.1102C113.409 75.8308 113.756 75.4171 113.71 74.9582C113.686 74.718 113.602 74.4083 113.431 74.2826C113.172 74.0919 112.911 74.0962 112.661 74.2084Z" fill="black" fill-opacity="0.8"/>
<path d="M96.0996 74.7222C96.3226 74.7349 96.6161 74.392 96.8581 74.1552C97.0496 73.916 97.3068 73.7549 97.5011 73.6645C97.7477 73.5497 98.097 73.5057 98.3533 73.2006C98.4442 73.0924 98.8629 72.4033 98.7832 72.3415C98.5708 72.177 98.4119 72.0295 98.2678 71.7371C98.0505 71.2964 97.4767 71.6198 97.041 71.909C96.6835 72.1463 96.1044 72.4578 95.8069 73.0803C95.6513 73.4059 95.493 73.8601 95.5378 74.1319C95.6057 74.5443 95.8174 74.7061 96.0996 74.7222Z" fill="black" fill-opacity="0.8"/>
<path d="M109.704 81.089C109.525 81.3433 109.511 81.697 109.859 82.1899C110.224 82.4353 110.423 82.7008 110.843 82.9196C111.353 83.1849 111.557 82.8633 111.645 82.7002C111.742 82.5219 111.603 82.3323 111.388 82.0294C111.141 81.6828 110.794 81.4161 110.353 81.1198C109.996 80.8792 109.785 80.9745 109.704 81.089Z" fill="#111111" fill-opacity="0.8"/>
<path d="M108.39 73.6242C108.156 74.2003 108.108 74.8278 108.478 75.4283C108.889 75.5854 109.101 75.9006 109.58 75.9701C110.16 76.0544 110.43 75.3419 110.549 74.9923C110.678 74.6099 110.531 74.382 110.302 74.0139C110.04 73.5928 109.652 73.3857 109.156 73.1961C108.754 73.0421 108.495 73.365 108.39 73.6242Z" fill="#111111" fill-opacity="0.8"/>
<path d="M104.699 77.5503C104.493 78.058 104.451 78.6112 104.777 79.1405C105.139 79.279 105.326 79.5569 105.748 79.6181C106.26 79.6924 106.498 79.0643 106.602 78.7562C106.716 78.4191 106.587 78.2182 106.385 77.8938C106.154 77.5226 105.812 77.34 105.375 77.1729C105.02 77.0371 104.792 77.3217 104.699 77.5503Z" fill="#111111" fill-opacity="0.8"/>
<path d="M105.729 81.0513C106.003 80.9058 106.363 80.9316 106.829 81.3285C107.042 81.7128 107.292 81.9372 107.474 82.3725C107.694 82.9004 107.348 83.0636 107.175 83.131C106.985 83.2047 106.806 83.0481 106.52 82.803C106.193 82.5227 105.956 82.1528 105.698 81.6888C105.488 81.3121 105.605 81.1168 105.729 81.0513Z" fill="#111111" fill-opacity="0.8"/>
<path d="M98.4994 61.6228C98.4116 61.3247 98.5085 60.9775 98.9904 60.6001C99.4095 60.4674 99.6792 60.2674 100.142 60.1765C100.703 60.0662 100.794 60.437 100.826 60.6205C100.86 60.8212 100.671 60.9652 100.374 61.1967C100.034 61.4615 99.624 61.62 99.118 61.7802C98.707 61.9103 98.539 61.757 98.4994 61.6228Z" fill="#111111" fill-opacity="0.8"/>
<path d="M107.968 84.6638C108.202 84.0878 108.607 83.5968 109.3 83.4028C109.711 83.5598 110.087 83.4699 110.486 83.7358C110.97 84.0585 110.667 84.7586 110.508 85.0926C110.334 85.4581 110.066 85.5273 109.64 85.6449C109.153 85.7794 108.724 85.6738 108.228 85.4841C107.825 85.3302 107.863 84.9231 107.968 84.6638Z" fill="#111111" fill-opacity="0.8"/>
<path d="M110.968 71.6638C111.202 71.0878 111.607 70.5968 112.3 70.4028C112.711 70.5598 113.087 70.4699 113.486 70.7358C113.97 71.0585 113.667 71.7586 113.508 72.0926C113.334 72.4581 113.066 72.5273 112.64 72.6449C112.153 72.7794 111.724 72.6738 111.228 72.4841C110.825 72.3302 110.863 71.9231 110.968 71.6638Z" fill="#111111" fill-opacity="0.8"/>
<path d="M111.03 79.089C110.949 78.7659 111.05 78.3056 111.139 78C111.246 78 111.294 78.0577 111.401 78.0748C111.475 78.0868 111.552 78.0696 111.624 78.0957C111.691 78.12 111.75 78.1502 111.821 78.1616C112.077 78.2027 112.298 78.2631 112.497 78.4562C112.61 78.5666 112.692 78.7287 112.79 78.8556C112.897 78.9932 112.949 79.1629 112.983 79.3373C113.125 80.0621 112.335 80.1214 111.913 79.8533C111.721 79.7308 111.531 79.5996 111.343 79.4689C111.215 79.38 111.072 79.2559 111.03 79.089Z" fill="#111111" fill-opacity="0.8"/>
<path d="M90.0149 60.5445C89.9743 60.383 90.0248 60.1528 90.0694 60C90.123 60 90.1471 60.0288 90.2003 60.0374C90.2375 60.0434 90.2759 60.0348 90.312 60.0479C90.3456 60.06 90.3751 60.0751 90.4106 60.0808C90.5385 60.1013 90.6489 60.1316 90.7483 60.2281C90.8052 60.2833 90.8459 60.3643 90.8951 60.4278C90.9485 60.4966 90.9747 60.5814 90.9917 60.6686C91.0623 61.0311 90.6677 61.0607 90.4567 60.9267C90.3603 60.8654 90.2654 60.7998 90.1714 60.7345C90.1074 60.69 90.0359 60.6279 90.0149 60.5445Z" fill="#111111" fill-opacity="0.8"/>
<path d="M107.866 58.1267C107.495 58.4389 107.489 58.942 107.423 59.3451C107.44 59.6772 107.248 60.0824 107.061 60.3804C106.824 60.7587 106.329 61.2642 106.331 61.705C106.332 61.8613 106.593 62.6301 106.803 62.5331C107.361 62.2747 107.811 62.0875 108.432 61.9584C109.369 61.7636 109.845 60.869 110.148 60.1785C110.397 59.6119 110.898 58.7127 110.535 58.1325C110.344 57.829 109.986 57.4889 109.55 57.4827C108.888 57.4733 108.335 57.7315 107.866 58.1267Z" fill="black" fill-opacity="0.8"/>
<path d="M106.917 75.5716C107.002 75.3675 106.768 74.9885 106.619 74.69C106.45 74.4379 106.379 74.1485 106.356 73.9396C106.326 73.6744 106.397 73.3351 106.187 73.0023C106.112 72.8843 105.585 72.2821 105.499 72.3375C105.271 72.4849 105.077 72.5878 104.747 72.6325C104.251 72.6997 104.376 73.3342 104.512 73.8293C104.624 74.2357 104.735 74.8715 105.238 75.3401C105.501 75.5854 105.887 75.8724 106.164 75.9142C106.584 75.9775 106.809 75.8298 106.917 75.5716Z" fill="black" fill-opacity="0.8"/>
<path d="M90.0149 64.089C89.9743 63.7659 90.0248 63.3056 90.0694 63C90.123 63 90.1471 63.0577 90.2003 63.0748C90.2375 63.0868 90.2759 63.0696 90.312 63.0957C90.3456 63.12 90.3751 63.1502 90.4106 63.1616C90.5385 63.2027 90.6489 63.2631 90.7483 63.4562C90.8052 63.5666 90.8459 63.7287 90.8951 63.8556C90.9485 63.9932 90.9747 64.1629 90.9917 64.3373C91.0623 65.0621 90.6677 65.1214 90.4567 64.8533C90.3603 64.7308 90.2654 64.5996 90.1714 64.4689C90.1074 64.38 90.0359 64.2559 90.0149 64.089Z" fill="#111111" fill-opacity="0.8"/>
<path d="M100.451 63.5225C100.752 63.703 100.797 64.1854 100.88 64.552C100.894 64.8773 101.07 65.2052 101.233 65.4316C101.44 65.7189 101.849 66.0452 101.883 66.4704C101.895 66.6211 101.764 67.4455 101.601 67.4199C101.165 67.3518 100.816 67.3174 100.344 67.3941C99.632 67.5098 99.205 66.8029 98.9234 66.2364C98.6923 65.7715 98.2468 65.0681 98.4694 64.392C98.5858 64.0382 98.8244 63.5948 99.1477 63.4477C99.6383 63.2246 100.07 63.294 100.451 63.5225Z" fill="black" fill-opacity="0.8"/>
<path d="M102.858 62.4799C102.663 62.9227 102.772 63.4576 103.524 64.0755C104.209 64.317 104.631 64.6459 105.396 64.8283C106.324 65.0495 106.536 64.497 106.618 64.2223C106.707 63.9218 106.411 63.6856 105.947 63.3064C105.416 62.8725 104.752 62.593 103.925 62.3015C103.253 62.0648 102.946 62.2806 102.858 62.4799Z" fill="#111111" fill-opacity="0.8"/>
<path d="M103.882 67.5506C104.331 67.36 104.905 67.4214 105.626 68.0236C105.943 68.5905 106.328 68.9301 106.591 69.5682C106.909 70.3422 106.346 70.5534 106.063 70.6386C105.755 70.7317 105.479 70.4944 105.037 70.1227C104.531 69.6974 104.175 69.1496 103.792 68.4651C103.481 67.9093 103.68 67.6364 103.882 67.5506Z" fill="#111111" fill-opacity="0.8"/>
<path d="M110.886 62.3041C111.272 62.5848 111.457 63.0748 111.16 63.9158C110.725 64.4162 110.548 64.8738 110.018 65.3603C109.374 65.9505 108.919 65.5866 108.711 65.3953C108.484 65.1861 108.605 64.8609 108.789 64.3437C109 63.7519 109.4 63.2289 109.925 62.6247C110.352 62.1342 110.713 62.1778 110.886 62.3041Z" fill="#111111" fill-opacity="0.8"/>
<path d="M109.745 70.8591C109.303 70.6563 109.008 70.2114 109.103 69.3335C109.413 68.7631 109.479 68.2826 109.885 67.708C110.377 67.0109 110.907 67.2821 111.154 67.4306C111.425 67.5931 111.383 67.9336 111.322 68.4739C111.253 69.092 110.984 69.6779 110.611 70.3666C110.307 70.9258 109.944 70.9503 109.745 70.8591Z" fill="#111111" fill-opacity="0.8"/>
<path d="M86 54V73" stroke="black"/>
<path d="M89.7594 33.7441C89.8406 33.2448 90.3501 32.9069 90.7187 32.5874C91.0685 32.3808 91.3589 31.9609 91.5433 31.6161C91.7773 31.1783 91.976 30.4529 92.4273 30.1628C92.5873 30.0599 93.5379 29.7554 93.5729 29.9849C93.6662 30.5957 93.7633 31.0745 94.0288 31.6494C94.4291 32.5163 93.8216 33.4848 93.3113 34.1815C92.8926 34.7533 92.296 35.744 91.4719 35.8424C91.0407 35.8939 90.4647 35.837 90.1796 35.4977C89.747 34.9828 89.6566 34.3759 89.7594 33.7441Z" fill="black" fill-opacity="0.8"/>
<path d="M82.9305 29.2562C83.1488 28.7911 83.7366 28.5781 84.1829 28.3514C84.5793 28.2298 84.978 27.8883 85.2529 27.5958C85.6019 27.2244 85.9973 26.5667 86.5153 26.3869C86.699 26.3231 87.7045 26.2414 87.6743 26.4713C87.5937 27.0836 87.5538 27.5689 87.65 28.1851C87.795 29.1141 86.9358 29.9156 86.2469 30.4757C85.6816 30.9354 84.8269 31.7609 84.0015 31.6715C83.5697 31.6247 83.0279 31.4405 82.8468 31.0481C82.572 30.4528 82.6542 29.8449 82.9305 29.2562Z" fill="black" fill-opacity="0.8"/>
<path d="M83.1028 36.4349C83.184 36.1021 83.6935 35.8768 84.0621 35.6638C84.4119 35.5261 84.7023 35.2461 84.8867 35.0163C85.1207 34.7244 85.3194 34.2408 85.7707 34.0474C85.9307 33.9788 86.8813 33.7758 86.9164 33.9288C87.0097 34.336 87.1067 34.6552 87.3722 35.0385C87.7725 35.6164 87.165 36.2621 86.6547 36.7266C86.236 37.1077 85.6394 37.7682 84.8153 37.8338C84.3842 37.8681 83.8081 37.8302 83.523 37.604C83.0905 37.2608 83 36.8561 83.1028 36.4349Z" fill="black" fill-opacity="0.8"/>
<path d="M76.4655 34.449C76.5873 34.1162 77.3515 33.8909 77.9045 33.6779C78.4291 33.5402 78.8648 33.2602 79.1413 33.0304C79.4923 32.7385 79.7904 32.2549 80.4673 32.0615C80.7073 31.9929 82.1332 31.7899 82.1858 31.9429C82.3258 32.3501 82.4714 32.6693 82.8696 33.0526C83.4701 33.6305 82.5587 34.2762 81.7933 34.7407C81.1653 35.1218 80.2704 35.7823 79.0343 35.8479C78.3875 35.8823 77.5234 35.8443 77.0958 35.6181C76.447 35.2749 76.3112 34.8703 76.4655 34.449Z" fill="black" fill-opacity="0.8"/>
<path d="M74.7941 53.732C75.3527 53.732 75.8951 53.4311 76.2803 52.5355C76.2803 51.8434 76.4768 51.3469 76.3815 50.6077C76.266 49.711 75.581 49.7385 75.2495 49.7727C74.8869 49.81 74.7428 50.1598 74.5073 50.7116C74.2379 51.3429 74.1887 52.0322 74.1887 52.8678C74.1887 53.5464 74.5426 53.732 74.7941 53.732Z" fill="#111111" fill-opacity="0.8"/>
<path d="M79.2318 51.7461C79.7905 51.7461 80.3328 51.4452 80.718 50.5496C80.718 49.8575 80.9145 49.361 80.8193 48.6218C80.7037 47.7251 80.0187 47.7526 79.6872 47.7868C79.3246 47.8241 79.1806 48.1739 78.9451 48.7257C78.6757 49.3571 78.6265 50.0463 78.6265 50.8819C78.6265 51.5605 78.9804 51.7461 79.2318 51.7461Z" fill="#111111" fill-opacity="0.8"/>
<path d="M77.0129 47.7743C77.5716 47.7743 78.1139 47.4734 78.4992 46.5778C78.4992 45.8857 78.6957 45.3892 78.6004 44.65C78.4848 43.7534 77.7999 43.7808 77.4684 43.815C77.1057 43.8524 76.9617 44.2021 76.7262 44.7539C76.4568 45.3853 76.4076 46.0745 76.4076 46.9101C76.4076 47.5887 76.7615 47.7743 77.0129 47.7743Z" fill="#111111" fill-opacity="0.8"/>
<path d="M81.4507 47.7743C82.0093 47.7743 82.5517 47.4734 82.9369 46.5778C82.9369 45.8857 83.1334 45.3892 83.0381 44.65C82.9226 43.7534 82.2376 43.7808 81.9061 43.815C81.5435 43.8524 81.3994 44.2021 81.164 44.7539C80.8945 45.3853 80.8453 46.0745 80.8453 46.9101C80.8453 47.5887 81.1993 47.7743 81.4507 47.7743Z" fill="#111111" fill-opacity="0.8"/>
<path d="M75.3994 41.8166C76.5167 41.8166 77.6014 41.5157 78.3719 40.6201C78.3719 39.928 78.7649 39.4316 78.5743 38.6924C78.3432 37.7957 76.9733 37.8231 76.3103 37.8573C75.585 37.8947 75.2969 38.2444 74.8259 38.7962C74.2871 39.4276 74.1887 40.1168 74.1887 40.9525C74.1887 41.631 74.8966 41.8166 75.3994 41.8166Z" fill="#111111" fill-opacity="0.8"/>
<path d="M79.8372 43.8025C80.9545 43.8025 82.0392 43.5016 82.8097 42.606C82.8097 41.9139 83.2026 41.4175 83.0121 40.6783C82.7809 39.7816 81.411 39.809 80.7481 39.8432C80.0228 39.8806 79.7347 40.2303 79.2637 40.7821C78.7249 41.4135 78.6265 42.1027 78.6265 42.9384C78.6265 43.6169 79.3343 43.8025 79.8372 43.8025Z" fill="#111111" fill-opacity="0.8"/>
<path d="M56.3992 33.7441C56.3179 33.2448 55.8085 32.9069 55.4398 32.5874C55.0901 32.3808 54.7996 31.9609 54.6153 31.6161C54.3813 31.1783 54.1825 30.4529 53.7313 30.1628C53.5713 30.0599 52.6207 29.7554 52.5856 29.9849C52.4923 30.5957 52.3952 31.0745 52.1297 31.6494C51.7295 32.5163 52.337 33.4848 52.8473 34.1815C53.266 34.7533 53.8626 35.744 54.6867 35.8424C55.1178 35.8939 55.6939 35.837 55.979 35.4977C56.4115 34.9828 56.502 34.3759 56.3992 33.7441Z" fill="black" fill-opacity="0.8"/>
<path d="M63.228 29.6585C63.0097 29.1934 62.422 28.9804 61.9757 28.7537C61.5793 28.632 61.1806 28.2906 60.9057 27.9981C60.5566 27.6267 60.1613 26.969 59.6432 26.7892C59.4595 26.7254 58.454 26.6437 58.4843 26.8736C58.5648 27.4859 58.6048 27.9712 58.5086 28.5874C58.3636 29.5163 59.2227 30.3179 59.9116 30.878C60.477 31.3377 61.3317 32.1632 62.1571 32.0738C62.5889 32.027 63.1307 31.8428 63.3118 31.4504C63.5865 30.8551 63.5043 30.2472 63.228 29.6585Z" fill="black" fill-opacity="0.8"/>
<path d="M63.0558 36.4349C62.9746 36.1021 62.4651 35.8768 62.0965 35.6638C61.7467 35.5261 61.4563 35.2461 61.2719 35.0163C61.0379 34.7244 60.8391 34.2408 60.3879 34.0474C60.2279 33.9788 59.2773 33.7758 59.2422 33.9288C59.1489 34.336 59.0518 34.6552 58.7863 35.0385C58.3861 35.6164 58.9936 36.2621 59.5039 36.7266C59.9226 37.1077 60.5192 37.7682 61.3433 37.8338C61.7744 37.8681 62.3505 37.8302 62.6356 37.604C63.0681 37.2608 63.1586 36.8561 63.0558 36.4349Z" fill="black" fill-opacity="0.8"/>
<path d="M69.6931 34.449C69.5713 34.1162 68.8071 33.8909 68.2541 33.6779C67.7295 33.5402 67.2938 33.2602 67.0173 33.0304C66.6662 32.7385 66.3681 32.2549 65.6913 32.0615C65.4512 31.9929 64.0253 31.7899 63.9728 31.9429C63.8328 32.3501 63.6872 32.6693 63.2889 33.0526C62.6885 33.6305 63.5998 34.2762 64.3652 34.7407C64.9933 35.1218 65.8882 35.7823 67.1243 35.8479C67.7711 35.8823 68.6352 35.8443 69.0628 35.6181C69.7116 35.2749 69.8473 34.8703 69.6931 34.449Z" fill="black" fill-opacity="0.8"/>
<path d="M71.3645 53.732C70.8059 53.732 70.2635 53.4311 69.8783 52.5355C69.8783 51.8434 69.6818 51.3469 69.7771 50.6077C69.8926 49.711 70.5776 49.7385 70.9091 49.7727C71.2717 49.81 71.4158 50.1598 71.6512 50.7116C71.9207 51.3429 71.9698 52.0322 71.9698 52.8678C71.9698 53.5464 71.6159 53.732 71.3645 53.732Z" fill="#111111" fill-opacity="0.8"/>
<path d="M66.9267 51.7461C66.3681 51.7461 65.8258 51.4452 65.4405 50.5496C65.4405 49.8575 65.244 49.361 65.3393 48.6218C65.4549 47.7251 66.1398 47.7526 66.4713 47.7868C66.834 47.8241 66.978 48.1739 67.2135 48.7257C67.4829 49.3571 67.5321 50.0463 67.5321 50.8819C67.5321 51.5605 67.1782 51.7461 66.9267 51.7461Z" fill="#111111" fill-opacity="0.8"/>
<path d="M69.1456 47.7743C68.587 47.7743 68.0446 47.4734 67.6594 46.5778C67.6594 45.8857 67.4629 45.3892 67.5582 44.65C67.6738 43.7534 68.3587 43.7808 68.6902 43.815C69.0528 43.8524 69.1969 44.2021 69.4324 44.7539C69.7018 45.3853 69.751 46.0745 69.751 46.9101C69.751 47.5887 69.3971 47.7743 69.1456 47.7743Z" fill="#111111" fill-opacity="0.8"/>
<path d="M64.7079 47.7743C64.1492 47.7743 63.6069 47.4734 63.2216 46.5778C63.2216 45.8857 63.0252 45.3892 63.1204 44.65C63.236 43.7534 63.921 43.7808 64.2524 43.815C64.6151 43.8524 64.7591 44.2021 64.9946 44.7539C65.264 45.3853 65.3132 46.0745 65.3132 46.9101C65.3132 47.5887 64.9593 47.7743 64.7079 47.7743Z" fill="#111111" fill-opacity="0.8"/>
<path d="M70.7591 41.8166C69.6419 41.8166 68.5572 41.5157 67.7867 40.6201C67.7867 39.928 67.3937 39.4316 67.5843 38.6924C67.8154 37.7957 69.1853 37.8231 69.8483 37.8573C70.5735 37.8947 70.8617 38.2444 71.3326 38.7962C71.8715 39.4276 71.9699 40.1168 71.9699 40.9525C71.9699 41.631 71.262 41.8166 70.7591 41.8166Z" fill="#111111" fill-opacity="0.8"/>
<path d="M66.3214 43.8025C65.2041 43.8025 64.1194 43.5016 63.3489 42.606C63.3489 41.9139 62.956 41.4175 63.1465 40.6783C63.3777 39.7816 64.7476 39.809 65.4105 39.8432C66.1358 39.8806 66.4239 40.2303 66.8949 40.7821C67.4337 41.4135 67.5321 42.1027 67.5321 42.9384C67.5321 43.6169 66.8243 43.8025 66.3214 43.8025Z" fill="#111111" fill-opacity="0.8"/>
<path d="M77.0129 31.8871C77.5716 31.8871 78.1139 31.5863 78.4992 30.6906C78.4992 29.9985 78.6957 29.5021 78.6004 28.7629C78.4848 27.8662 77.7999 27.8937 77.4684 27.9278C77.1057 27.9652 76.9617 28.3149 76.7262 28.8668C76.4568 29.4981 76.4076 30.1874 76.4076 31.023C76.4076 31.7015 76.7615 31.8871 77.0129 31.8871Z" fill="#111111" fill-opacity="0.8"/>
<path d="M75.3994 25.9295C76.5167 25.9295 77.6014 25.6286 78.3719 24.7329C78.3719 24.0409 78.7649 23.5444 78.5743 22.8052C78.3432 21.9085 76.9733 21.936 76.3103 21.9701C75.585 22.0075 75.2969 22.3573 74.8259 22.9091C74.2871 23.5404 74.1887 24.2297 74.1887 25.0653C74.1887 25.7439 74.8966 25.9295 75.3994 25.9295Z" fill="#111111" fill-opacity="0.8"/>
<path d="M79.8372 27.9154C80.9545 27.9154 82.0392 27.6145 82.8097 26.7188C82.8097 26.0268 83.2026 25.5303 83.0121 24.7911C82.7809 23.8944 81.411 23.9219 80.7481 23.956C80.0228 23.9934 79.7347 24.3432 79.2637 24.895C78.7249 25.5263 78.6265 26.2156 78.6265 27.0512C78.6265 27.7298 79.3343 27.9154 79.8372 27.9154Z" fill="#111111" fill-opacity="0.8"/>
<path d="M69.1456 31.8871C68.587 31.8871 68.0446 31.5863 67.6594 30.6906C67.6594 29.9985 67.4629 29.5021 67.5582 28.7629C67.6738 27.8662 68.3587 27.8937 68.6902 27.9278C69.0528 27.9652 69.1969 28.3149 69.4324 28.8668C69.7018 29.4981 69.751 30.1874 69.751 31.023C69.751 31.7015 69.3971 31.8871 69.1456 31.8871Z" fill="#111111" fill-opacity="0.8"/>
<path d="M49.2269 26.0681C48.8021 25.7053 48.5851 25.1242 48.8739 24.193C49.3233 23.6667 49.4963 23.1616 50.0489 22.6614C50.7191 22.0546 51.2221 22.5203 51.452 22.7616C51.7035 23.0255 51.5859 23.385 51.4065 23.9576C51.2014 24.6126 50.7912 25.1687 50.2485 25.8041C49.8078 26.3201 49.4181 26.2314 49.2269 26.0681Z" fill="#111111" fill-opacity="0.8"/>
<path d="M70.7591 25.9295C69.6419 25.9295 68.5572 25.6286 67.7867 24.7329C67.7867 24.0409 67.3937 23.5444 67.5843 22.8052C67.8154 21.9085 69.1853 21.936 69.8483 21.9701C70.5735 22.0075 70.8617 22.3573 71.3326 22.9091C71.8715 23.5404 71.9699 24.2297 71.9699 25.0653C71.9699 25.7439 71.262 25.9295 70.7591 25.9295Z" fill="#111111" fill-opacity="0.8"/>
<path d="M66.3214 27.9154C65.2041 27.9154 64.1194 27.6145 63.3489 26.7188C63.3489 26.0268 62.956 25.5303 63.1465 24.7911C63.3777 23.8944 64.7476 23.9219 65.4105 23.956C66.1358 23.9934 66.4239 24.3432 66.8949 24.895C67.4337 25.5263 67.5321 26.2156 67.5321 27.0512C67.5321 27.7298 66.8243 27.9154 66.3214 27.9154Z" fill="#111111" fill-opacity="0.8"/>
<path d="M60.1667 18.8104C60.5455 18.7767 60.9423 19.1407 61.2826 19.3887C61.537 19.6438 61.9243 19.8046 62.2255 19.8904C62.6079 19.9995 63.1832 20.0192 63.5282 20.3435C63.6506 20.4585 64.16 21.2049 64.0083 21.282C63.6044 21.4873 63.2953 21.6686 62.97 22.013C62.4795 22.5323 61.6057 22.2147 60.9544 21.9239C60.42 21.6853 59.5338 21.3816 59.2094 20.7004C59.0397 20.344 58.902 19.8419 59.0543 19.5293C59.2854 19.0551 59.6874 18.853 60.1667 18.8104Z" fill="black" fill-opacity="0.8"/>
<path d="M76.2779 20.6079C76.0223 20.488 75.9322 19.9631 75.8264 19.5772C75.7783 19.2189 75.6038 18.9011 75.4506 18.6931C75.2562 18.4291 74.8994 18.1761 74.8246 17.7119C74.7981 17.5473 74.8067 16.5943 74.9374 16.5787C75.2854 16.5371 75.5625 16.4812 75.9226 16.2685C76.4654 15.948 76.8792 16.6199 77.1635 17.1747C77.3969 17.63 77.8248 18.293 77.7276 19.1058C77.6768 19.531 77.5407 20.089 77.3048 20.3398C76.9469 20.7205 76.6015 20.7596 76.2779 20.6079Z" fill="black" fill-opacity="0.8"/>
<path d="M81.4613 22.1269C81.9376 21.8657 82.2244 21.3555 82.03 20.4117C81.626 19.8216 81.5037 19.3064 80.9909 18.7207C80.3689 18.0102 79.8009 18.3539 79.5382 18.5381C79.2508 18.7395 79.3322 19.1051 79.4535 19.6857C79.5924 20.35 79.9528 20.9607 80.4407 21.6732C80.8368 22.2518 81.2469 22.2445 81.4613 22.1269Z" fill="#111111" fill-opacity="0.8"/>
<path d="M82.7888 17.4033C83.0376 16.9204 82.9901 16.3371 82.3011 15.6633C81.6362 15.4 81.2467 15.0413 80.4941 14.8425C79.5811 14.6013 79.3024 15.2038 79.1876 15.5034C79.062 15.8311 79.3339 16.0887 79.7592 16.5022C80.2458 16.9753 80.8861 17.28 81.6889 17.5979C82.3409 17.856 82.6768 17.6207 82.7888 17.4033Z" fill="#111111" fill-opacity="0.8"/>
<path d="M91.0856 18.9058C91.3344 18.4229 91.2869 17.8395 90.598 17.1658C89.933 16.9025 89.5435 16.5438 88.7909 16.345C87.8779 16.1038 87.5992 16.7063 87.4844 17.0059C87.3588 17.3336 87.6307 17.5912 88.056 18.0047C88.5426 18.4778 89.1829 18.7825 89.9857 19.1004C90.6377 19.3585 90.9736 19.1231 91.0856 18.9058Z" fill="#111111" fill-opacity="0.8"/>
<path d="M97.0856 20.9058C97.3344 20.4229 97.2869 19.8395 96.598 19.1658C95.933 18.9025 95.5435 18.5438 94.7909 18.345C93.8779 18.1038 93.5992 18.7063 93.4844 19.0059C93.3588 19.3336 93.6307 19.5912 94.056 20.0047C94.5426 20.4778 95.1829 20.7825 95.9857 21.1004C96.6377 21.3585 96.9736 21.1231 97.0856 20.9058Z" fill="#111111" fill-opacity="0.8"/>
<path d="M97.0856 24.9058C97.3344 24.4229 97.2869 23.8395 96.598 23.1658C95.933 22.9025 95.5435 22.5438 94.7909 22.345C93.8779 22.1038 93.5992 22.7063 93.4844 23.0059C93.3588 23.3336 93.6307 23.5912 94.056 24.0047C94.5426 24.4778 95.1829 24.7825 95.9857 25.1004C96.6377 25.3585 96.9736 25.1231 97.0856 24.9058Z" fill="#111111" fill-opacity="0.8"/>
<path d="M57.0335 17.4529C56.6444 17.0738 56.0727 16.9487 55.227 17.4105C54.7808 17.9694 54.3239 18.237 53.9137 18.8986C53.4161 19.7012 53.9108 20.1439 54.1637 20.3413C54.4404 20.5572 54.7662 20.3725 55.286 20.0867C55.8807 19.7597 56.3593 19.2364 56.898 18.5616C57.3355 18.0136 57.2086 17.6235 57.0335 17.4529Z" fill="#111111" fill-opacity="0.8"/>
<path d="M51.6844 19.095C51.2953 18.7159 50.7236 18.5908 49.8779 19.0527C49.4317 19.6116 48.9748 19.8791 48.5646 20.5408C48.067 21.3433 48.5617 21.786 48.8146 21.9834C49.0913 22.1993 49.4171 22.0146 49.9369 21.7288C50.5316 21.4018 51.0102 20.8786 51.5489 20.2037C51.9864 19.6557 51.8595 19.2657 51.6844 19.095Z" fill="#111111" fill-opacity="0.8"/>
<path d="M52.1871 27.6721C52.3597 28.1476 52.847 28.5163 53.9178 28.5674C54.6532 28.3535 55.2415 28.3674 55.9975 28.0579C56.9147 27.6824 56.6738 27.1078 56.5351 26.8362C56.3833 26.5391 55.9672 26.5246 55.308 26.4946C54.5539 26.4604 53.8062 26.6315 52.9183 26.8898C52.1972 27.0994 52.1094 27.4581 52.1871 27.6721Z" fill="#111111" fill-opacity="0.8"/>
<path d="M89.9141 27.7251C90.1005 28.1964 90.5985 28.5535 91.6704 28.5796C92.3993 28.3486 92.9878 28.3486 93.7345 28.0215C94.6404 27.6247 94.3828 27.0559 94.2362 26.7877C94.0757 26.4942 93.6593 26.4894 92.9995 26.475C92.2446 26.4584 91.5023 26.647 90.6221 26.9259C89.9075 27.1524 89.8301 27.513 89.9141 27.7251Z" fill="#111111" fill-opacity="0.8"/>
<path d="M73.2202 18.3759C73.5843 18.0233 73.7237 17.4266 73.3376 16.4263C72.8452 15.8413 72.62 15.2976 72.032 14.7329C71.3188 14.0479 70.8919 14.5034 70.7002 14.7416C70.4905 15.0021 70.6454 15.3887 70.8845 16.0038C71.1581 16.7076 71.6164 17.3212 72.2109 18.0276C72.6937 18.6012 73.0564 18.5347 73.2202 18.3759Z" fill="#111111" fill-opacity="0.8"/>
<path d="M87.689 23.7003C87.8616 24.1758 88.349 24.5445 89.4197 24.5956C90.1552 24.3818 90.7434 24.3956 91.4995 24.0861C92.4166 23.7106 92.1758 23.1361 92.037 22.8645C91.8852 22.5673 91.4691 22.5528 90.8099 22.5229C90.0558 22.4886 89.3082 22.6597 88.4202 22.918C87.6992 23.1277 87.6113 23.4863 87.689 23.7003Z" fill="#111111" fill-opacity="0.8"/>
<path d="M60.2807 17.2287C60.5522 17.6556 61.1078 17.91 62.1642 17.7282C62.8359 17.3603 63.4132 17.2464 64.0844 16.7806C64.8985 16.2155 64.539 15.7067 64.3448 15.4716C64.1323 15.2144 63.7229 15.2902 63.0729 15.4037C62.3292 15.5335 61.6363 15.8624 60.8253 16.3067C60.1667 16.6675 60.1586 17.0366 60.2807 17.2287Z" fill="#111111" fill-opacity="0.8"/>
<path d="M83.4383 20.2438C83.7836 21.1948 84.4385 22.0251 85.6283 22.4042C86.3638 22.1903 87.0127 22.3714 87.7394 21.9808C88.6208 21.5069 88.1683 20.3493 87.9271 19.7956C87.6633 19.1898 87.2026 19.0526 86.4707 18.8223C85.6333 18.5587 84.8705 18.6879 83.9825 18.9462C83.2614 19.1559 83.2829 19.8157 83.4383 20.2438Z" fill="#111111" fill-opacity="0.8"/>
<path d="M66.4911 20.1148C67.578 20.3463 68.711 20.2783 69.6923 19.5667C69.8713 18.8934 70.382 18.4919 70.3879 17.7333C70.395 16.8131 69.0552 16.5559 68.4014 16.4518C67.6862 16.3378 67.3154 16.6184 66.7145 17.0576C66.027 17.5601 65.753 18.2103 65.5368 19.0232C65.3613 19.6833 66.0018 20.0105 66.4911 20.1148Z" fill="#111111" fill-opacity="0.8"/>
<path d="M53.4869 25.9835C53.8776 26.004 54.3918 25.4502 54.816 25.0678C55.1514 24.6814 55.6021 24.4212 55.9424 24.2752C56.3745 24.0898 56.9865 24.0188 57.4356 23.526C57.5949 23.3513 58.3285 22.2383 58.1888 22.1385C57.8167 21.8727 57.5383 21.6345 57.2857 21.1623C56.905 20.4505 55.8998 20.9728 55.1364 21.4399C54.51 21.8232 53.4954 22.3263 52.9741 23.3317C52.7014 23.8576 52.4242 24.5911 52.5026 25.0301C52.6216 25.6962 52.9925 25.9575 53.4869 25.9835Z" fill="black" fill-opacity="0.8"/>
<mask id="path-126-inside-4" fill="white">
<path fill-rule="evenodd" clip-rule="evenodd" d="M29.8913 7.27336C25.3683 6.28384 21.5771 10.8532 23.178 15.3645L31.5036 38.8258C34.2101 26.3419 43.8401 16.2841 56.382 13.0689L29.8913 7.27336Z"/>
</mask>
<path fill-rule="evenodd" clip-rule="evenodd" d="M29.8913 7.27336C25.3683 6.28384 21.5771 10.8532 23.178 15.3645L31.5036 38.8258C34.2101 26.3419 43.8401 16.2841 56.382 13.0689L29.8913 7.27336Z" fill="#ECDA85"/>
<path d="M23.178 15.3645L24.1204 15.0306L23.178 15.3645ZM29.8913 7.27336L29.6782 8.25022L29.8913 7.27336ZM31.5036 38.8258L30.5611 39.1597L31.7365 42.4718L32.4809 39.0383L31.5036 38.8258ZM56.382 13.0689L56.6309 14.0375L56.5951 12.092L56.382 13.0689ZM24.1204 15.0306C22.7541 11.1804 26.001 7.44574 29.6782 8.25022L30.1045 6.29651C24.7356 5.12194 20.4 10.5259 22.2355 15.6983L24.1204 15.0306ZM32.446 38.4919L24.1204 15.0306L22.2355 15.6983L30.5611 39.1597L32.446 38.4919ZM32.4809 39.0383C35.1073 26.9242 44.4552 17.1589 56.6309 14.0375L56.1331 12.1002C43.225 15.4093 33.313 25.7596 30.5262 38.6133L32.4809 39.0383ZM29.6782 8.25022L56.1688 14.0457L56.5951 12.092L30.1045 6.29651L29.6782 8.25022Z" fill="black" mask="url(#path-126-inside-4)"/>
<mask id="path-128-inside-5" fill="white">
<path fill-rule="evenodd" clip-rule="evenodd" d="M30.5319 10.8027C27.4289 10.1599 24.8227 13.0959 25.9078 16.012L32.6586 34.1537C32.9038 34.8125 33.2953 35.3554 33.7773 35.7726C33.5847 34.9329 33.461 34.0681 33.412 33.1833C32.914 24.1819 40.3452 16.5211 50.01 16.0725C51.0146 16.0258 52.0037 16.059 52.9704 16.1659C52.4362 15.6096 51.7217 15.1925 50.8552 15.013L30.5319 10.8027Z"/>
</mask>
<g filter="url(#filter1_i)">
<path fill-rule="evenodd" clip-rule="evenodd" d="M30.5319 10.8027C27.4289 10.1599 24.8227 13.0959 25.9078 16.012L32.6586 34.1537C32.9038 34.8125 33.2953 35.3554 33.7773 35.7726C33.5847 34.9329 33.461 34.0681 33.412 33.1833C32.914 24.1819 40.3452 16.5211 50.01 16.0725C51.0146 16.0258 52.0037 16.059 52.9704 16.1659C52.4362 15.6096 51.7217 15.1925 50.8552 15.013L30.5319 10.8027Z" fill="#E4DEDE"/>
</g>
<path d="M25.9078 16.012L24.9705 16.3566L25.9078 16.012ZM30.5319 10.8027L30.3334 11.7816L30.5319 10.8027ZM32.6586 34.1537L33.5959 33.8091L32.6586 34.1537ZM33.7773 35.7726L33.1245 36.527L35.4336 38.5258L34.7522 35.5537L33.7773 35.7726ZM33.412 33.1833L34.4108 33.1329L33.412 33.1833ZM50.01 16.0725L49.9589 15.0738L50.01 16.0725ZM52.9704 16.1659L52.865 17.1595L55.5982 17.4618L53.6904 15.4753L52.9704 16.1659ZM50.8552 15.013L50.6567 15.9919L50.6567 15.9919L50.8552 15.013ZM26.8451 15.6674C26.0498 13.5303 27.9544 11.2888 30.3334 11.7816L30.7304 9.82381C26.9034 9.03099 23.5955 12.6616 24.9705 16.3566L26.8451 15.6674ZM33.5959 33.8091L26.8451 15.6674L24.9705 16.3566L31.7213 34.4983L33.5959 33.8091ZM34.43 35.0182C34.0728 34.709 33.7808 34.306 33.5959 33.8091L31.7213 34.4983C32.0267 35.319 32.5178 36.0019 33.1245 36.527L34.43 35.0182ZM34.7522 35.5537C34.5723 34.769 34.4566 33.9606 34.4108 33.1329L32.4133 33.2338C32.4654 34.1756 32.5972 35.0968 32.8023 35.9915L34.7522 35.5537ZM34.4108 33.1329C33.9469 24.7502 40.8815 17.4973 50.0612 17.0711L49.9589 15.0738C39.8088 15.5449 31.881 23.6136 32.4133 33.2338L34.4108 33.1329ZM50.0612 17.0711C51.0134 17.0269 51.9502 17.0584 52.865 17.1595L53.0757 15.1722C52.0572 15.0595 51.0158 15.0247 49.9589 15.0738L50.0612 17.0711ZM50.6567 15.9919C51.3225 16.1299 51.8556 16.4454 52.2504 16.8564L53.6904 15.4753C53.0168 14.7739 52.121 14.2552 51.0537 14.0341L50.6567 15.9919ZM30.3334 11.7816L50.6567 15.9919L51.0537 14.0341L30.7304 9.82381L30.3334 11.7816Z" fill="black" mask="url(#path-128-inside-5)"/>
<path d="M36.337 36.1606C35.9179 35.9412 35.3873 36.0241 34.7305 36.7535C34.4463 37.4341 34.095 37.8452 33.8629 38.6095C33.5814 39.5367 34.1066 39.7788 34.3694 39.8754C34.6568 39.981 34.9085 39.6937 35.3118 39.2435C35.7733 38.7284 36.0932 38.07 36.4364 37.2482C36.715 36.5809 36.5257 36.2594 36.337 36.1606Z" fill="#111111" fill-opacity="0.8"/>
<path d="M39.4092 39.1892C38.9009 39.1237 38.3361 39.3482 37.7734 40.1608C37.6094 40.8236 37.313 41.276 37.2245 41.995C37.1172 42.8673 37.747 42.9214 38.0567 42.9275C38.3955 42.9342 38.6095 42.6162 38.9545 42.1153C39.3493 41.5423 39.5573 40.888 39.7553 40.0878C39.9161 39.4379 39.638 39.2187 39.4092 39.1892Z" fill="#111111" fill-opacity="0.8"/>
<path d="M40.3098 28.9745C40.3083 28.6634 40.0837 28.286 39.9119 28.0422C39.8016 28.0749 39.7673 28.1407 39.6625 28.1882C39.5892 28.2215 39.5059 28.2296 39.4386 28.2747C39.376 28.3167 39.3232 28.3614 39.2534 28.3931C39.0013 28.5074 38.7905 28.6281 38.6368 28.8598C38.549 28.9923 38.5079 29.1608 38.4401 29.3033C38.3666 29.4577 38.3574 29.624 38.3683 29.789C38.4136 30.4746 39.2397 30.287 39.6027 29.921C39.7687 29.7537 39.9291 29.5797 40.0881 29.4065C40.1962 29.2887 40.3105 29.1352 40.3098 28.9745Z" fill="#111111" fill-opacity="0.8"/>
<path d="M38.3098 32.9745C38.3083 32.6634 38.0837 32.286 37.9119 32.0422C37.8016 32.0749 37.7673 32.1407 37.6625 32.1882C37.5892 32.2215 37.5059 32.2296 37.4386 32.2747C37.376 32.3167 37.3232 32.3614 37.2534 32.3931C37.0013 32.5074 36.7905 32.6281 36.6368 32.8598C36.549 32.9923 36.5079 33.1608 36.4401 33.3033C36.3666 33.4577 36.3574 33.624 36.3683 33.789C36.4136 34.4746 37.2397 34.287 37.6027 33.921C37.7687 33.7537 37.9291 33.5797 38.0881 33.4065C38.1962 33.2887 38.3105 33.1352 38.3098 32.9745Z" fill="#111111" fill-opacity="0.8"/>
<path d="M40.334 35.9583C40.3325 35.6473 40.1079 35.2699 39.9361 35.0261C39.8258 35.0588 39.7915 35.1245 39.6867 35.1721C39.6134 35.2053 39.5301 35.2135 39.4628 35.2586C39.4002 35.3006 39.3474 35.3453 39.2776 35.3769C39.0255 35.4913 38.8147 35.612 38.661 35.8437C38.5732 35.9762 38.5321 36.1447 38.4643 36.2871C38.3908 36.4416 38.3816 36.6079 38.3925 36.7729C38.4378 37.4585 39.2639 37.2709 39.6269 36.9049C39.7929 36.7376 39.9533 36.5635 40.1123 36.3904C40.2204 36.2726 40.3347 36.1191 40.334 35.9583Z" fill="#111111" fill-opacity="0.8"/>
<path d="M33.2101 50.1761C33.44 49.9573 33.6394 49.6541 33.8545 49.4087C33.9765 49.353 34.3134 48.7717 34.3701 49.2325C34.3919 49.4097 34.4573 49.5934 34.5061 49.7611C34.5325 49.8519 34.7819 50.2009 34.7731 50.2479C34.7306 50.4754 34.4728 50.6837 34.3725 50.8576C34.2443 51.0798 34.1536 51.2511 34.1861 51.5561C34.2223 51.8963 35.0236 52.2971 34.8536 52.5828C34.7594 52.741 34.7782 52.9779 34.6463 53.0818C34.59 53.1263 34.786 53.7446 34.7351 53.8022C34.5623 53.9973 33.7358 54.3744 34.027 54.6884C34.2301 54.9074 33.4949 54.4672 33.4907 54.7722C33.4887 54.9112 33.5086 55.1997 33.3742 55.2207C33.2055 55.247 33.0354 55.289 32.865 55.2976C32.7791 55.3019 32.9085 55.1016 32.9153 55.0241C32.9289 54.8687 32.894 54.6997 32.8749 54.5444C32.816 54.0658 32.1995 53.4714 32.7082 53.2212C32.8546 53.1492 32.9301 52.6674 32.9708 52.4896C33.0574 52.1113 33.0817 51.711 33.1348 51.3219C33.1632 51.1138 33.0872 50.8141 33.0619 50.6082C33.0274 50.3285 33.0579 50.3209 33.2101 50.1761Z" fill="#111111" fill-opacity="0.8"/>
<path d="M36.9725 48.9434C37.1089 48.8135 36.7463 48.7567 36.874 48.611C36.9464 48.5779 37.515 47.8312 37.5487 48.1048C37.5616 48.21 37.7128 48.5975 37.7418 48.697C37.7575 48.7509 37.9055 48.9581 37.9003 48.986C37.8751 49.1211 37.722 49.2447 37.6625 49.348C37.5864 49.4798 37.5325 49.5816 37.5518 49.7626C37.5733 49.9646 38.049 50.2025 37.9481 50.3721C37.8921 50.4661 37.9033 50.6066 37.825 50.6684C37.7916 50.6947 37.908 51.0618 37.8777 51.096C37.7752 51.2118 37.2845 51.4357 37.4574 51.6221C37.5779 51.7521 37.1415 51.4908 37.139 51.6718C37.1378 51.7543 37.1496 51.9256 37.0699 51.9381C36.9697 51.9537 36.8687 51.9787 36.7676 51.9837C36.7166 51.9863 36.7934 51.8674 36.7974 51.8214C36.8055 51.7291 36.7848 51.6288 36.7734 51.5366C36.7385 51.2525 37.1319 51.2358 36.6834 50.6335C36.3503 50.8658 36.2271 50.3463 36.2513 50.2408C36.3027 50.0162 36.0554 50.1484 36.4414 49.8164C36.4582 49.6928 36.5963 49.4989 36.5812 49.3767C36.5608 49.2107 36.8821 49.0294 36.9725 48.9434Z" fill="#111111" fill-opacity="0.8"/>
<path d="M45.8486 25.9434C45.9851 25.8135 45.6224 25.7567 45.7501 25.611C45.8226 25.5779 46.3911 24.8312 46.4248 25.1048C46.4377 25.21 46.5889 25.5975 46.6179 25.697C46.6336 25.7509 46.7817 25.9581 46.7764 25.986C46.7512 26.1211 46.5982 26.2447 46.5386 26.348C46.4625 26.4798 46.4087 26.5816 46.4279 26.7626C46.4495 26.9646 46.9252 27.2025 46.8242 27.3721C46.7683 27.4661 46.7795 27.6066 46.7012 27.6684C46.6677 27.6947 46.7841 28.0618 46.7538 28.096C46.6513 28.2118 46.1606 28.4357 46.3335 28.6221C46.4541 28.7521 46.0176 28.4908 46.0151 28.6718C46.014 28.7543 46.0258 28.9256 45.946 28.9381C45.8458 28.9537 45.7448 28.9787 45.6437 28.9837C45.5927 28.9863 45.6695 28.8674 45.6736 28.8214C45.6817 28.7291 45.6609 28.6288 45.6496 28.5366C45.6146 28.2525 46.0081 28.2358 45.5595 27.6335C45.2264 27.8658 45.1033 27.3463 45.1274 27.2408C45.1789 27.0162 44.9315 27.1484 45.3175 26.8164C45.3344 26.6928 45.4724 26.4989 45.4574 26.3767C45.4369 26.2107 45.7582 26.0294 45.8486 25.9434Z" fill="#111111" fill-opacity="0.8"/>
<path d="M34.969 41.7896C35.204 41.5661 35.4077 41.2562 35.6276 41.0054C35.7523 40.9484 36.0966 40.3543 36.1546 40.8253C36.1769 41.0064 36.2437 41.1941 36.2935 41.3655C36.3205 41.4583 36.5754 41.815 36.5665 41.863C36.523 42.0956 36.2595 42.3085 36.1569 42.4862C36.026 42.7133 35.9332 42.8884 35.9664 43.2001C36.0035 43.5478 36.8225 43.9574 36.6487 44.2494C36.5524 44.4112 36.5717 44.6532 36.4369 44.7595C36.3793 44.8049 36.5797 45.4369 36.5275 45.4957C36.351 45.6951 35.5062 46.0805 35.8039 46.4015C36.0114 46.6253 35.2601 46.1754 35.2557 46.4871C35.2537 46.6291 35.274 46.924 35.1367 46.9455C34.9643 46.9724 34.7904 47.0153 34.6163 47.0241C34.5285 47.0285 34.6607 46.8237 34.6677 46.7446C34.6816 46.5857 34.6459 46.413 34.6264 46.2543C34.5661 45.7651 33.936 45.1576 34.456 44.9019C34.6057 44.8283 34.6827 44.3359 34.7244 44.1542C34.8129 43.7676 34.8377 43.3584 34.892 42.9608C34.9211 42.748 34.8434 42.4417 34.8175 42.2314C34.7823 41.9455 34.8134 41.9377 34.969 41.7896Z" fill="#111111" fill-opacity="0.8"/>
<path d="M43.1229 38.5444C42.9361 38.6697 42.7581 38.8572 42.5776 39.0027C42.4869 39.0273 42.1765 39.3921 42.2025 39.0652C42.2125 38.9395 42.1938 38.8043 42.1841 38.6821C42.1789 38.6159 42.0583 38.3443 42.0708 38.3127C42.1316 38.1595 42.336 38.0448 42.4285 37.9356C42.5467 37.7961 42.6323 37.6875 42.653 37.4718C42.676 37.2312 42.1876 36.8594 42.3431 36.6807C42.4293 36.5816 42.4497 36.4149 42.5538 36.3579C42.5983 36.3336 42.5517 35.8811 42.5944 35.847C42.7391 35.7315 43.3536 35.5656 43.1997 35.3134C43.0924 35.1376 43.5303 35.529 43.5759 35.3176C43.5967 35.2212 43.6236 35.0184 43.7178 35.0194C43.8362 35.0207 43.9577 35.0113 44.0746 35.0252C44.1336 35.0322 44.0176 35.1564 44.0021 35.2094C43.9711 35.3158 43.9712 35.4374 43.9624 35.5475C43.9355 35.887 44.2712 36.3717 43.8904 36.4865C43.7808 36.5195 43.6621 36.8456 43.6095 36.9644C43.4977 37.2172 43.4251 37.4926 43.3345 37.7568C43.2861 37.8982 43.2958 38.1153 43.2842 38.2613C43.2684 38.4597 43.2466 38.4614 43.1229 38.5444Z" fill="#111111" fill-opacity="0.8"/>
<path d="M42.7043 27.2655C42.4188 27.4316 42.1393 27.6897 41.8608 27.8861C41.7263 27.9136 41.2346 28.4191 41.309 27.9427C41.3376 27.7595 41.3256 27.5597 41.3253 27.3798C41.3251 27.2823 41.1804 26.8733 41.2021 26.8281C41.3075 26.6094 41.6173 26.4603 41.7639 26.309C41.9512 26.1157 42.0878 25.9646 42.142 25.6506C42.2024 25.3002 41.5346 24.7102 41.7807 24.4628C41.917 24.3258 41.9652 24.0834 42.1229 24.0097C42.1903 23.9782 42.1733 23.3109 42.2392 23.265C42.4623 23.1093 43.3734 22.9234 43.1781 22.5398C43.0419 22.2723 43.6341 22.8864 43.7241 22.5809C43.7651 22.4417 43.8269 22.1471 43.9637 22.1574C44.1354 22.1703 44.3129 22.1678 44.4813 22.199C44.5662 22.2148 44.3837 22.3859 44.3553 22.4621C44.2983 22.6152 44.2848 22.7932 44.2597 22.9537C44.1825 23.4485 44.6158 24.1898 44.0498 24.3224C43.887 24.3606 43.678 24.8272 43.5883 24.9963C43.3975 25.3563 43.2612 25.7529 43.1 26.1315C43.0137 26.334 43.0035 26.653 42.9703 26.8658C42.9251 27.1549 42.8933 27.1555 42.7043 27.2655Z" fill="#111111" fill-opacity="0.8"/>
<path d="M41.7529 33.7618C41.4674 33.9279 41.188 34.186 40.9094 34.3824C40.7749 34.4099 40.2833 34.9154 40.3576 34.439C40.3862 34.2558 40.3742 34.056 40.3739 33.8761C40.3737 33.7786 40.229 33.3696 40.2507 33.3244C40.3561 33.1057 40.6659 32.9566 40.8125 32.8053C40.9998 32.612 41.1364 32.4609 41.1906 32.1469C41.251 31.7965 40.5833 31.2065 40.8293 30.9591C40.9656 30.8221 41.0138 30.5797 41.1715 30.506C41.2389 30.4745 41.2219 29.8072 41.2878 29.7613C41.5109 29.6056 42.4221 29.4197 42.2267 29.0361C42.0905 28.7686 42.6827 29.3827 42.7727 29.0772C42.8137 28.938 42.8755 28.6434 43.0123 28.6537C43.184 28.6666 43.3615 28.6641 43.5299 28.6953C43.6148 28.7111 43.4324 28.8822 43.404 28.9584C43.3469 29.1114 43.3334 29.2895 43.3084 29.45C43.2311 29.9448 43.6644 30.6861 43.0984 30.8187C42.9356 30.8568 42.7266 31.3235 42.6369 31.4926C42.4461 31.8525 42.3098 32.2492 42.1486 32.6278C42.0624 32.8303 42.0521 33.1493 42.0189 33.3621C41.9737 33.6512 41.9419 33.6518 41.7529 33.7618Z" fill="#111111" fill-opacity="0.8"/>
<path d="M54.3134 18.3388C54.6012 18.7561 55.1667 18.992 56.217 18.7763C56.8752 18.3872 57.4486 18.2549 58.1026 17.7682C58.896 17.1777 58.5171 16.6815 58.3139 16.4531C58.0916 16.2033 57.6847 16.2923 57.0386 16.4266C56.2993 16.5803 55.6184 16.931 54.8236 17.4008C54.1782 17.7823 54.1839 18.151 54.3134 18.3388Z" fill="#111111" fill-opacity="0.8"/>
<path d="M32 38.5L23 14L24 10.5L27 8H31L57 13.5" stroke="black" stroke-width="2"/>
<path d="M67 79L62 73" stroke="black"/>
<path d="M83.5 78.5L86 74.5" stroke="black"/>
<mask id="path-146-inside-6" fill="white">
<path fill-rule="evenodd" clip-rule="evenodd" d="M119.1 8.22977C123.624 7.24132 127.414 11.8115 125.812 16.3224L117.481 39.7818C114.777 27.2973 105.15 17.2372 92.6084 14.019L119.1 8.22977Z"/>
</mask>
<path fill-rule="evenodd" clip-rule="evenodd" d="M119.1 8.22977C123.624 7.24132 127.414 11.8115 125.812 16.3224L117.481 39.7818C114.777 27.2973 105.15 17.2372 92.6084 14.019L119.1 8.22977Z" fill="#ECDA85"/>
<path d="M125.812 16.3224L124.87 15.9884L125.812 16.3224ZM119.1 8.22977L119.313 9.20667L119.1 8.22977ZM117.481 39.7818L118.423 40.1159L117.247 43.4278L116.503 39.9941L117.481 39.7818ZM92.6084 14.019L92.3593 14.9876L92.3955 13.0421L92.6084 14.019ZM124.87 15.9884C126.237 12.1385 122.991 8.40307 119.313 9.20667L118.888 7.25287C124.257 6.07957 128.591 11.4846 126.754 16.6565L124.87 15.9884ZM116.538 39.4477L124.87 15.9884L126.754 16.6565L118.423 40.1159L116.538 39.4477ZM116.503 39.9941C113.88 27.8794 104.534 18.1118 92.3593 14.9876L92.8576 13.0504C105.765 16.3626 115.674 26.7152 118.458 39.5696L116.503 39.9941ZM119.313 9.20667L92.8213 14.9959L92.3955 13.0421L118.888 7.25287L119.313 9.20667Z" fill="black" mask="url(#path-146-inside-6)"/>
<mask id="path-148-inside-7" fill="white">
<path fill-rule="evenodd" clip-rule="evenodd" d="M118.459 11.759C121.562 11.1169 124.168 14.0535 123.082 16.9693L116.327 35.1094C116.082 35.7682 115.69 36.311 115.208 36.7281C115.401 35.8884 115.524 35.0237 115.574 34.1389C116.074 25.1376 108.644 17.475 98.9797 17.0241C97.9751 16.9772 96.986 17.0101 96.0193 17.1168C96.5536 16.5607 97.2682 16.1438 98.1348 15.9645L118.459 11.759Z"/>
</mask>
<g filter="url(#filter2_i)">
<path fill-rule="evenodd" clip-rule="evenodd" d="M118.459 11.759C121.562 11.1169 124.168 14.0535 123.082 16.9693L116.327 35.1094C116.082 35.7682 115.69 36.311 115.208 36.7281C115.401 35.8884 115.524 35.0237 115.574 34.1389C116.074 25.1376 108.644 17.475 98.9797 17.0241C97.9751 16.9772 96.986 17.0101 96.0193 17.1168C96.5536 16.5607 97.2682 16.1438 98.1348 15.9645L118.459 11.759Z" fill="#E4DEDE"/>
</g>
<path d="M123.082 16.9693L124.019 17.3141L123.082 16.9693ZM118.459 11.759L118.657 12.7379L118.459 11.759ZM116.327 35.1094L115.39 34.7646L116.327 35.1094ZM115.208 36.7281L115.86 37.4827L113.551 39.4809L114.233 36.509L115.208 36.7281ZM115.574 34.1389L114.575 34.0882L115.574 34.1389ZM98.9797 17.0241L99.0311 16.0254L98.9797 17.0241ZM96.0193 17.1168L96.1244 18.1105L93.3912 18.4121L95.2995 16.4261L96.0193 17.1168ZM98.1348 15.9645L98.3331 16.9434L98.3331 16.9434L98.1348 15.9645ZM122.145 16.6245C122.94 14.4876 121.036 12.2457 118.657 12.7379L118.261 10.78C122.088 9.9881 125.395 13.6195 124.019 17.3141L122.145 16.6245ZM115.39 34.7646L122.145 16.6245L124.019 17.3141L117.264 35.4542L115.39 34.7646ZM114.555 35.9736C114.912 35.6645 115.205 35.2615 115.39 34.7646L117.264 35.4542C116.958 36.2749 116.467 36.9576 115.86 37.4827L114.555 35.9736ZM114.233 36.509C114.413 35.7243 114.529 34.9159 114.575 34.0882L116.572 34.1896C116.52 35.1314 116.388 36.0525 116.183 36.9473L114.233 36.509ZM114.575 34.0882C115.041 25.7056 108.108 18.4511 98.9283 18.0228L99.0311 16.0254C109.181 16.499 117.107 24.5696 116.572 34.1896L114.575 34.0882ZM98.9283 18.0228C97.9761 17.9784 97.0393 18.0096 96.1244 18.1105L95.9142 16.1231C96.9327 16.0107 97.9742 15.9761 99.0311 16.0254L98.9283 18.0228ZM98.3331 16.9434C97.6672 17.0812 97.134 17.3966 96.7392 17.8075L95.2995 16.4261C95.9732 15.7249 96.8691 15.2064 97.9365 14.9855L98.3331 16.9434ZM118.657 12.7379L98.3331 16.9434L97.9365 14.9855L118.261 10.78L118.657 12.7379Z" fill="black" mask="url(#path-148-inside-7)"/>
<path d="M112.648 37.1155C113.067 36.8962 113.598 36.9792 114.254 37.7088C114.538 38.3895 114.89 38.8006 115.121 39.565C115.403 40.4923 114.878 40.7342 114.615 40.8307C114.327 40.9363 114.076 40.6489 113.672 40.1986C113.211 39.6835 112.891 39.0249 112.548 38.2031C112.27 37.5357 112.459 37.2142 112.648 37.1155Z" fill="#111111" fill-opacity="0.8"/>
<path d="M109.575 40.1434C110.083 40.078 110.648 40.3027 111.211 41.1153C111.374 41.7782 111.671 42.2306 111.759 42.9497C111.866 43.822 111.236 43.8759 110.927 43.882C110.588 43.8886 110.374 43.5705 110.029 43.0696C109.634 42.4965 109.427 41.8421 109.229 41.0418C109.068 40.392 109.346 40.1728 109.575 40.1434Z" fill="#111111" fill-opacity="0.8"/>
<path d="M108.677 29.9284C108.678 29.6173 108.903 29.24 109.075 28.9962C109.185 29.0289 109.22 29.0947 109.324 29.1423C109.398 29.1756 109.481 29.1837 109.548 29.2289C109.611 29.2709 109.664 29.3156 109.733 29.3473C109.985 29.4617 110.196 29.5824 110.35 29.8142C110.438 29.9467 110.479 30.1151 110.546 30.2577C110.62 30.4121 110.629 30.5785 110.618 30.7434C110.573 31.429 109.747 31.2412 109.384 30.8751C109.218 30.7078 109.057 30.5337 108.898 30.3605C108.79 30.2427 108.676 30.0891 108.677 29.9284Z" fill="#111111" fill-opacity="0.8"/>
<path d="M110.676 33.9289C110.677 33.6178 110.902 33.2405 111.074 32.9967C111.184 33.0294 111.219 33.0952 111.323 33.1428C111.397 33.176 111.48 33.1842 111.547 33.2294C111.61 33.2713 111.663 33.316 111.733 33.3477C111.985 33.4621 112.195 33.5829 112.349 33.8147C112.437 33.9472 112.478 34.1156 112.546 34.2581C112.619 34.4126 112.628 34.5789 112.617 34.7439C112.572 35.4294 111.746 35.2417 111.383 34.8756C111.217 34.7083 111.056 34.5342 110.898 34.361C110.789 34.2432 110.675 34.0896 110.676 33.9289Z" fill="#111111" fill-opacity="0.8"/>
<path d="M108.651 36.9123C108.653 36.6012 108.877 36.2239 109.049 35.9801C109.159 36.0128 109.194 36.0786 109.299 36.1262C109.372 36.1594 109.455 36.1676 109.522 36.2128C109.585 36.2547 109.638 36.2994 109.708 36.3311C109.96 36.4455 110.17 36.5663 110.324 36.7981C110.412 36.9306 110.453 37.099 110.521 37.2415C110.594 37.396 110.603 37.5623 110.592 37.7273C110.547 38.4128 109.721 38.2251 109.358 37.859C109.192 37.6917 109.032 37.5176 108.873 37.3444C108.765 37.2266 108.65 37.073 108.651 36.9123Z" fill="#111111" fill-opacity="0.8"/>
<path d="M115.772 51.1317C115.542 50.9129 115.342 50.6097 115.127 50.3642C115.005 50.3084 114.669 49.7271 114.612 50.1879C114.59 50.3651 114.525 50.5487 114.476 50.7164C114.449 50.8072 114.2 51.1562 114.209 51.2031C114.251 51.4307 114.509 51.639 114.609 51.813C114.737 52.0351 114.828 52.2065 114.795 52.5114C114.759 52.8516 113.958 53.2523 114.128 53.538C114.222 53.6963 114.203 53.9331 114.335 54.0371C114.391 54.0816 114.195 54.6999 114.246 54.7575C114.418 54.9526 115.245 55.3299 114.954 55.6438C114.75 55.8628 115.486 55.4228 115.49 55.7278C115.492 55.8667 115.472 56.1552 115.606 56.1763C115.775 56.2027 115.945 56.2447 116.115 56.2533C116.201 56.2576 116.072 56.0573 116.065 55.9798C116.052 55.8244 116.087 55.6554 116.106 55.5001C116.165 55.0215 116.781 54.4273 116.273 54.177C116.126 54.1049 116.051 53.6231 116.01 53.4453C115.924 53.067 115.9 52.6666 115.847 52.2776C115.818 52.0694 115.894 51.7697 115.92 51.5639C115.954 51.2842 115.924 51.2766 115.772 51.1317Z" fill="#111111" fill-opacity="0.8"/>
<path d="M112.009 49.8981C111.873 49.7682 112.236 49.7115 112.108 49.5657C112.036 49.5326 111.467 48.7859 111.433 49.0594C111.421 49.1646 111.269 49.552 111.24 49.6516C111.225 49.7055 111.076 49.9126 111.082 49.9405C111.107 50.0756 111.26 50.1993 111.319 50.3025C111.395 50.4344 111.449 50.5362 111.43 50.7172C111.408 50.9191 110.933 51.157 111.034 51.3266C111.089 51.4206 111.078 51.5612 111.156 51.6229C111.19 51.6493 111.073 52.0163 111.104 52.0505C111.206 52.1663 111.697 52.3903 111.524 52.5767C111.403 52.7067 111.84 52.4455 111.842 52.6265C111.843 52.709 111.832 52.8803 111.911 52.8928C112.012 52.9085 112.113 52.9334 112.214 52.9385C112.265 52.9411 112.188 52.8221 112.184 52.7762C112.176 52.6839 112.197 52.5836 112.208 52.4914C112.243 52.2073 111.849 52.1905 112.298 51.5883C112.631 51.8207 112.754 51.3012 112.73 51.1957C112.679 50.9711 112.926 51.1033 112.54 50.7713C112.524 50.6477 112.386 50.4537 112.401 50.3315C112.421 50.1655 112.1 49.9841 112.009 49.8981Z" fill="#111111" fill-opacity="0.8"/>
<path d="M103.139 26.896C103.002 26.7661 103.365 26.7094 103.237 26.5637C103.165 26.5305 102.597 25.7838 102.563 26.0573C102.55 26.1625 102.399 26.5499 102.37 26.6495C102.354 26.7034 102.206 26.9105 102.211 26.9384C102.236 27.0735 102.389 27.1972 102.449 27.3004C102.525 27.4323 102.579 27.5341 102.559 27.7151C102.538 27.917 102.062 28.1549 102.163 28.3245C102.219 28.4185 102.208 28.5591 102.286 28.6208C102.319 28.6472 102.203 29.0142 102.233 29.0484C102.336 29.1642 102.826 29.3882 102.653 29.5746C102.533 29.7046 102.969 29.4434 102.972 29.6244C102.973 29.7069 102.961 29.8782 103.041 29.8907C103.141 29.9064 103.242 29.9313 103.343 29.9364C103.394 29.939 103.317 29.8201 103.313 29.7741C103.305 29.6818 103.326 29.5815 103.337 29.4893C103.372 29.2052 102.979 29.1884 103.427 28.5862C103.761 28.8186 103.884 28.2991 103.86 28.1936C103.808 27.969 104.056 28.1012 103.67 27.7692C103.653 27.6456 103.515 27.4516 103.53 27.3295C103.55 27.1634 103.229 26.982 103.139 26.896Z" fill="#111111" fill-opacity="0.8"/>
<path d="M114.015 42.7448C113.78 42.5212 113.576 42.2113 113.356 41.9604C113.232 41.9034 112.887 41.3093 112.829 41.7802C112.807 41.9613 112.74 42.149 112.69 42.3204C112.663 42.4132 112.408 42.7699 112.417 42.8179C112.461 43.0504 112.724 43.2634 112.827 43.4412C112.957 43.6682 113.05 43.8434 113.017 44.155C112.98 44.5027 112.161 44.9122 112.334 45.2042C112.431 45.366 112.411 45.608 112.546 45.7143C112.604 45.7598 112.403 46.3917 112.455 46.4506C112.632 46.65 113.476 47.0356 113.179 47.3565C112.971 47.5802 113.723 47.1305 113.727 47.4423C113.729 47.5843 113.708 47.8791 113.846 47.9006C114.018 47.9276 114.192 47.9706 114.366 47.9794C114.454 47.9838 114.322 47.779 114.315 47.6999C114.301 47.541 114.337 47.3683 114.356 47.2096C114.417 46.7204 115.047 46.1131 114.527 45.8573C114.377 45.7836 114.3 45.2911 114.259 45.1095C114.17 44.7228 114.146 44.3136 114.091 43.916C114.062 43.7032 114.14 43.397 114.166 43.1866C114.201 42.9007 114.17 42.8929 114.015 42.7448Z" fill="#111111" fill-opacity="0.8"/>
<path d="M105.862 39.4977C106.048 39.623 106.226 39.8106 106.407 39.9561C106.497 39.9807 106.808 40.3456 106.782 40.0187C106.772 39.893 106.791 39.7578 106.8 39.6356C106.806 39.5694 106.926 39.2979 106.914 39.2662C106.853 39.1131 106.649 38.9982 106.556 38.889C106.438 38.7495 106.352 38.6409 106.332 38.4252C106.309 38.1846 106.797 37.8129 106.642 37.6341C106.556 37.5351 106.535 37.3683 106.431 37.3114C106.387 37.287 106.433 36.8345 106.391 36.8004C106.246 36.6849 105.631 36.5188 105.785 36.2667C105.893 36.0909 105.455 36.4822 105.409 36.2707C105.389 36.1744 105.362 35.9716 105.267 35.9726C105.149 35.9738 105.028 35.9644 104.911 35.9783C104.852 35.9852 104.968 36.1094 104.983 36.1625C105.014 36.2689 105.014 36.3904 105.023 36.5006C105.05 36.8401 104.714 37.3247 105.094 37.4396C105.204 37.4726 105.323 37.7987 105.375 37.9175C105.487 38.1704 105.56 38.4458 105.65 38.71C105.698 38.8514 105.689 39.0685 105.7 39.2145C105.716 39.4129 105.738 39.4147 105.862 39.4977Z" fill="#111111" fill-opacity="0.8"/>
<path d="M106.283 28.2189C106.568 28.385 106.848 28.6432 107.126 28.8397C107.261 28.8672 107.752 29.3728 107.678 28.8964C107.649 28.7132 107.661 28.5134 107.662 28.3335C107.662 28.236 107.807 27.827 107.785 27.7819C107.68 27.5631 107.37 27.414 107.223 27.2626C107.036 27.0692 106.9 26.9182 106.846 26.6041C106.785 26.2537 107.453 25.6638 107.207 25.4164C107.071 25.2793 107.023 25.0369 106.865 24.9632C106.798 24.9317 106.815 24.2644 106.749 24.2185C106.526 24.0628 105.615 23.8767 105.81 23.4931C105.946 23.2256 105.354 23.8395 105.264 23.534C105.223 23.3948 105.161 23.1002 105.025 23.1105C104.853 23.1233 104.675 23.1208 104.507 23.152C104.422 23.1677 104.604 23.3389 104.633 23.4151C104.69 23.5682 104.703 23.7462 104.728 23.9067C104.805 24.4015 104.372 25.1427 104.938 25.2755C105.101 25.3137 105.31 25.7803 105.399 25.9495C105.59 26.3095 105.726 26.7062 105.887 27.0848C105.974 27.2873 105.984 27.6063 106.017 27.8191C106.062 28.1082 106.094 28.1088 106.283 28.2189Z" fill="#111111" fill-opacity="0.8"/>
<path d="M107.233 34.7154C107.518 34.8815 107.797 35.1397 108.076 35.3362C108.211 35.3638 108.702 35.8693 108.628 35.3929C108.599 35.2098 108.611 35.0099 108.612 34.83C108.612 34.7326 108.757 34.3236 108.735 34.2784C108.63 34.0597 108.32 33.9105 108.173 33.7591C107.986 33.5657 107.849 33.4147 107.795 33.1006C107.735 32.7502 108.403 32.1604 108.157 31.9129C108.021 31.7759 107.972 31.5334 107.815 31.4597C107.747 31.4282 107.765 30.761 107.699 30.715C107.476 30.5593 106.565 30.3732 106.76 29.9896C106.896 29.7221 106.304 30.3361 106.214 30.0305C106.173 29.8913 106.111 29.5967 105.974 29.607C105.803 29.6199 105.625 29.6173 105.457 29.6485C105.372 29.6642 105.554 29.8354 105.583 29.9116C105.64 30.0647 105.653 30.2427 105.678 30.4032C105.755 30.898 105.322 31.6393 105.888 31.772C106.051 31.8102 106.26 32.2768 106.349 32.446C106.54 32.806 106.676 33.2027 106.837 33.5813C106.923 33.7839 106.934 34.1028 106.967 34.3156C107.012 34.6048 107.044 34.6053 107.233 34.7154Z" fill="#111111" fill-opacity="0.8"/>
<path d="M94.6757 19.2894C94.3879 19.7066 93.8223 19.9425 92.7721 19.7265C92.1139 19.3372 91.5406 19.2048 90.8867 18.7179C90.0935 18.1273 90.4724 17.6312 90.6757 17.4028C90.8981 17.153 91.3049 17.2421 91.951 17.3766C92.6903 17.5305 93.3711 17.8814 94.1658 18.3513C94.8111 18.7329 94.8053 19.1017 94.6757 19.2894Z" fill="#111111" fill-opacity="0.8"/>
<path d="M116.984 39.4559L125.99 14.958L124.991 11.4578L121.992 8.95709L117.992 8.95614L91.9903 14.45" stroke="black" stroke-width="2"/>
</g>
<defs>
<filter id="filter0_d" x="0" y="0" width="148.992" height="130" filterUnits="userSpaceOnUse" color-interpolation-filters="sRGB">
<feFlood flood-opacity="0" result="BackgroundImageFix"/>
<feColorMatrix in="SourceAlpha" type="matrix" values="0 0 0 0 0 0 0 0 0 0 0 0 0 0 0 0 0 0 127 0"/>
<feOffset dy="4"/>
<feGaussianBlur stdDeviation="2"/>
<feColorMatrix type="matrix" values="0 0 0 0 0 0 0 0 0 0 0 0 0 0 0 0 0 0 0.25 0"/>
<feBlend mode="normal" in2="BackgroundImageFix" result="effect1_dropShadow"/>
<feBlend mode="normal" in="SourceGraphic" in2="effect1_dropShadow" result="shape"/>
</filter>
<filter id="filter1_i" x="25.6573" y="10.7133" width="27.3131" height="29.0593" filterUnits="userSpaceOnUse" color-interpolation-filters="sRGB">
<feFlood flood-opacity="0" result="BackgroundImageFix"/>
<feBlend mode="normal" in="SourceGraphic" in2="BackgroundImageFix" result="shape"/>
<feColorMatrix in="SourceAlpha" type="matrix" values="0 0 0 0 0 0 0 0 0 0 0 0 0 0 0 0 0 0 127 0" result="hardAlpha"/>
<feOffset dy="4"/>
<feGaussianBlur stdDeviation="2"/>
<feComposite in2="hardAlpha" operator="arithmetic" k2="-1" k3="1"/>
<feColorMatrix type="matrix" values="0 0 0 0 0 0 0 0 0 0 0 0 0 0 0 0 0 0 0.25 0"/>
<feBlend mode="normal" in2="shape" result="effect1_innerShadow"/>
</filter>
<filter id="filter2_i" x="96.0193" y="11.6698" width="27.3134" height="29.0583" filterUnits="userSpaceOnUse" color-interpolation-filters="sRGB">
<feFlood flood-opacity="0" result="BackgroundImageFix"/>
<feBlend mode="normal" in="SourceGraphic" in2="BackgroundImageFix" result="shape"/>
<feColorMatrix in="SourceAlpha" type="matrix" values="0 0 0 0 0 0 0 0 0 0 0 0 0 0 0 0 0 0 127 0" result="hardAlpha"/>
<feOffset dy="4"/>
<feGaussianBlur stdDeviation="2"/>
<feComposite in2="hardAlpha" operator="arithmetic" k2="-1" k3="1"/>
<feColorMatrix type="matrix" values="0 0 0 0 0 0 0 0 0 0 0 0 0 0 0 0 0 0 0.25 0"/>
<feBlend mode="normal" in2="shape" result="effect1_innerShadow"/>
</filter>
<linearGradient id="paint0_linear" x1="75.5" y1="11" x2="74.25" y2="109.5" gradientUnits="userSpaceOnUse">
<stop stop-color="white"/>
<stop stop-color="white" stop-opacity="0.486671"/>
<stop offset="1" stop-color="#DB7761" stop-opacity="0"/>
</linearGradient>
<linearGradient id="paint1_linear" x1="74.5" y1="70" x2="74.5" y2="122" gradientUnits="userSpaceOnUse">
<stop stop-color="#CDC0C0"/>
<stop offset="1" stop-color="white" stop-opacity="0"/>
</linearGradient>
<linearGradient id="paint2_linear" x1="51.1661" y1="47.9412" x2="57.572" y2="49.8317" gradientUnits="userSpaceOnUse">
<stop stop-color="#95AF86"/>
<stop offset="1" stop-color="white" stop-opacity="0"/>
</linearGradient>
<linearGradient id="paint3_linear" x1="96.8339" y1="47.9412" x2="90.428" y2="49.8317" gradientUnits="userSpaceOnUse">
<stop stop-color="#95AF86"/>
<stop offset="1" stop-color="white" stop-opacity="0"/>
</linearGradient>
</defs>
</svg>
