<svg width="167" height="138" viewBox="0 0 167 138" fill="none" xmlns="http://www.w3.org/2000/svg">
<path d="M148.841 110.099C148.283 110.099 147.738 110.259 147.275 110.559C146.811 110.858 146.45 111.284 146.237 111.783C146.023 112.282 145.968 112.83 146.076 113.359C146.185 113.889 146.454 114.375 146.848 114.756C147.242 115.138 147.744 115.398 148.291 115.503C148.838 115.608 149.404 115.554 149.919 115.348C150.434 115.141 150.875 114.792 151.184 114.343C151.494 113.894 151.659 113.367 151.659 112.827C151.659 112.103 151.362 111.41 150.834 110.898C150.305 110.386 149.588 110.099 148.841 110.099ZM148.841 114.506C148.498 114.506 148.162 114.408 147.877 114.223C147.592 114.039 147.369 113.776 147.238 113.47C147.107 113.163 147.073 112.825 147.14 112.5C147.206 112.174 147.372 111.875 147.614 111.64C147.857 111.405 148.166 111.245 148.502 111.18C148.839 111.116 149.188 111.149 149.505 111.276C149.821 111.403 150.092 111.618 150.283 111.894C150.474 112.17 150.575 112.495 150.575 112.827V112.827C150.575 113.272 150.393 113.699 150.067 114.014C149.742 114.329 149.301 114.506 148.841 114.506Z" fill="#AEAEAE"/>
<path d="M138 108H148.841V118.386C148.841 118.748 148.692 119.096 148.427 119.352C148.162 119.609 147.803 119.753 147.429 119.753H139.412C139.038 119.753 138.678 119.609 138.414 119.352C138.149 119.096 138 118.748 138 118.386V108Z" fill="#AEAEAE"/>
<path d="M166.781 120H4.21935C4.15907 119.986 4.10334 119.928 4.06286 119.836C4.02239 119.743 4 119.624 4 119.5C4 119.376 4.02239 119.257 4.06286 119.164C4.10334 119.072 4.15907 119.014 4.21935 119H166.781C166.841 119.014 166.897 119.072 166.937 119.164C166.978 119.257 167 119.376 167 119.5C167 119.624 166.978 119.743 166.937 119.836C166.897 119.928 166.841 119.986 166.781 120Z" fill="#C1C1C1"/>
<path d="M135.247 4.27865H69.4669C69.118 4.27907 68.7834 4.42454 68.5367 4.68318C68.29 4.94181 68.1512 5.29247 68.1508 5.65823V18.654H68.6772V5.65823C68.6775 5.43877 68.7607 5.22837 68.9088 5.07319C69.0568 4.91801 69.2575 4.83072 69.4669 4.83048H135.247C135.456 4.83072 135.657 4.91801 135.805 5.07319C135.953 5.22837 136.036 5.43877 136.037 5.65823V18.7448H136.563V5.65823C136.563 5.29247 136.424 4.94181 136.177 4.68318C135.93 4.42454 135.596 4.27907 135.247 4.27865Z" fill="#3F3D56"/>
<path d="M159.092 18.9298H4.51695V18.378H159.092V18.9298Z" fill="#3F3D56"/>
<path d="M4.52813 13.9508C7.02894 13.9508 9.05626 16.0758 9.05626 18.6971C9.05626 21.3184 7.02894 23.4435 4.52813 23.4435C2.02731 23.4435 0 21.3184 0 18.6971C0 16.0758 2.02731 13.9508 4.52813 13.9508Z" fill="#FFEB69"/>
<path d="M50.5425 13.9508C53.0433 13.9508 55.0706 16.0758 55.0706 18.6971C55.0706 21.3184 53.0433 23.4435 50.5425 23.4435C48.0417 23.4435 46.0144 21.3184 46.0144 18.6971C46.0144 16.0758 48.0417 13.9508 50.5425 13.9508Z" fill="#FFEB69"/>
<path d="M81.7704 3.8147e-06C84.2712 3.8147e-06 86.2985 2.12501 86.2985 4.74633C86.2985 7.36766 84.2712 9.49266 81.7704 9.49266C79.2695 9.49266 77.2422 7.36766 77.2422 4.74633C77.2422 2.12501 79.2695 3.8147e-06 81.7704 3.8147e-06Z" fill="#939597"/>
<path d="M105.511 3.8147e-06C108.011 3.8147e-06 110.039 2.12501 110.039 4.74633C110.039 7.36766 108.011 9.49266 105.511 9.49266C103.01 9.49266 100.982 7.36766 100.982 4.74633C100.982 2.12501 103.01 3.8147e-06 105.511 3.8147e-06Z" fill="#AEAEAE"/>
<path d="M94.0064 13.9508C96.5073 13.9508 98.5346 16.0758 98.5346 18.6971C98.5346 21.3184 96.5073 23.4435 94.0064 23.4435C91.5056 23.4435 89.4783 21.3184 89.4783 18.6971C89.4783 16.0758 91.5056 13.9508 94.0064 13.9508Z" fill="#FFEB69"/>
<path d="M158.472 13.9508C160.973 13.9508 163 16.0758 163 18.6971C163 21.3184 160.973 23.4435 158.472 23.4435C155.971 23.4435 153.944 21.3184 153.944 18.6971C153.944 16.0758 155.971 13.9508 158.472 13.9508Z" fill="#FFEB69"/>
<path d="M136.3 13.9508C138.801 13.9508 140.828 16.0758 140.828 18.6971C140.828 21.3184 138.801 23.4435 136.3 23.4435C133.799 23.4435 131.772 21.3184 131.772 18.6971C131.772 16.0758 133.799 13.9508 136.3 13.9508Z" fill="#FFEB69"/>
<path d="M85.8687 62.3461H77.4699V56.2787H85.8687V62.3461Z" fill="#0002B4"/>
<path d="M8.76072 62.3461H0.3619V56.2787H8.76072V62.3461Z" fill="#FFEB69"/>
<path d="M37.209 62.3461H28.8102V56.2787H37.209V62.3461Z" fill="#AEAEAE"/>
<path d="M18.5697 18.3781C18.4999 18.3781 18.4329 18.4072 18.3836 18.4589C18.3342 18.5107 18.3065 18.5808 18.3065 18.654V32.2739C18.3069 32.6397 18.4457 32.9903 18.6924 33.249C18.9391 33.5076 19.2737 33.6531 19.6226 33.6535H32.4354C32.5052 33.6535 32.5722 33.6244 32.6216 33.5727C32.6709 33.521 32.6987 33.4508 32.6987 33.3776C32.6987 33.3044 32.6709 33.2342 32.6216 33.1825C32.5722 33.1307 32.5052 33.1017 32.4354 33.1017H19.6226C19.4133 33.1014 19.2125 33.0142 19.0645 32.859C18.9164 32.7038 18.8332 32.4934 18.8329 32.2739V18.654C18.8329 18.5808 18.8052 18.5107 18.7558 18.4589C18.7065 18.4072 18.6395 18.3781 18.5697 18.3781Z" fill="#3F3D56"/>
<path d="M33.0376 28.7343C35.5384 28.7343 37.5657 30.8593 37.5657 33.4806C37.5657 36.102 35.5384 38.227 33.0376 38.227C30.5368 38.227 28.5095 36.102 28.5095 33.4806C28.5095 30.8593 30.5368 28.7343 33.0376 28.7343Z" fill="#0002B4"/>
<path d="M119.914 18.654H119.388V32.2739C119.388 32.6397 119.527 32.9903 119.774 33.249C120.02 33.5076 120.355 33.6531 120.704 33.6535H133.517V33.1017H120.704C120.495 33.1014 120.294 33.0142 120.146 32.859C119.998 32.7038 119.914 32.4934 119.914 32.2739V18.654Z" fill="#3F3D56"/>
<path d="M134.119 28.7343C136.62 28.7343 138.647 30.8593 138.647 33.4806C138.647 36.102 136.62 38.227 134.119 38.227C131.618 38.227 129.591 36.102 129.591 33.4806C129.591 30.8593 131.618 28.7343 134.119 28.7343Z" fill="#0002B4"/>
<path d="M32.9327 115.413L31.925 120.236L50.6646 126.294L52.1521 119.176L32.9327 115.413Z" fill="#EBADAD"/>
<path d="M34.8167 114.501L32.8319 124L32.8318 124C32.4962 125.605 31.5156 127.016 30.1056 127.922C28.6956 128.827 26.9718 129.153 25.3133 128.829L25.1101 128.789L28.3598 113.237L34.8167 114.501Z" fill="#2F2E41"/>
<path d="M54.1686 48.9749C61.1959 48.9749 66.8928 43.4605 66.8928 36.6581C66.8928 29.8557 61.1959 24.3413 54.1686 24.3413C47.1412 24.3413 41.4444 29.8557 41.4444 36.6581C41.4444 43.4605 47.1412 48.9749 54.1686 48.9749Z" fill="#EBADAD"/>
<path d="M66.0531 26.0328C64.1507 23.0425 61.1729 20.8391 57.6929 19.8467L56.1308 20.9501V19.5174C55.295 19.3935 54.4491 19.3458 53.6041 19.3749L52.2564 20.5553V19.473C50.261 19.713 48.3386 20.3506 46.6105 21.3456C44.8823 22.3406 43.3859 23.6714 42.2156 25.2542C39.2889 29.3383 38.7948 35.0202 41.6735 39.1372C42.4636 36.7864 43.4228 34.5807 44.2131 32.2302C44.8342 32.3122 45.4637 32.3151 46.0855 32.239L47.0469 30.0675L47.3155 32.1471C50.2954 31.8959 54.7153 31.344 57.5403 30.8385L57.2655 29.2431L58.9091 30.5688C59.7745 30.376 60.2884 30.201 60.246 30.0673C62.347 33.346 64.9183 35.4401 67.0191 38.7188C67.8171 34.0956 68.7355 30.2515 66.0531 26.0328Z" fill="#2F2E41"/>
<path d="M58.3086 117.257C76.403 117.257 91.0715 113.285 91.0715 108.386C91.0715 103.486 76.403 99.5147 58.3086 99.5147C40.2141 99.5147 25.5457 103.486 25.5457 108.386C25.5457 113.285 40.2141 117.257 58.3086 117.257Z" fill="#2F2E41"/>
<path d="M81.5347 68.3311C81.0971 65.783 80.6458 63.186 79.4224 60.8906C78.6183 59.387 77.342 57.9543 75.6214 57.657C75.2825 57.6277 74.9494 57.5531 74.6317 57.4352C74.1275 57.2001 67.3527 53.4565 66.2759 52.8045C65.3513 52.2447 63.8918 51.2083 63.1559 51.2083C62.4155 51.1925 59.5767 51.8321 48.4964 50.9937C46.6326 51.7178 44.8278 52.5768 43.0972 53.5633C43.0615 53.5405 31.5969 59.4998 31.1662 59.4842C30.3505 59.4509 29.5923 59.9564 29.1247 60.5931C28.6572 61.2297 28.4379 62.0178 28.2083 62.7797C30.7123 68.1777 33.0034 73.5825 35.5077 78.9805C35.625 79.1838 35.6873 79.4125 35.6888 79.6453C35.6385 79.887 35.532 80.1144 35.3773 80.3102C34.1492 82.2198 34.1883 84.6216 34.3224 86.8659C34.4567 89.1103 34.6227 91.481 33.5865 93.4927C33.3047 94.045 32.9382 94.5505 32.6701 95.1028C32.0423 96.3537 31.8155 100.355 32.1821 101.698L78.1195 102.972C77.1318 100.344 81.5347 68.3311 81.5347 68.3311Z" fill="#F5DF4D"/>
<path d="M24.2375 79.2198C24.1458 79.8616 24.1366 80.512 24.21 81.156L24.8684 90.3087C24.9302 91.1714 24.9911 92.0319 25.0747 92.8924C25.2327 94.5624 25.4687 96.2191 25.7616 97.8734C25.7682 98.1083 25.8708 98.3311 26.0469 98.4928C26.223 98.6545 26.4582 98.742 26.7008 98.7361C29.5991 99.3297 32.5935 99.306 35.5514 99.1443C40.065 98.9004 51.6125 98.439 52.318 97.5519C53.0235 96.6648 52.6124 95.2299 51.6925 94.5126C50.7726 93.7952 35.534 92.0464 35.534 92.0464C35.6829 90.9043 36.1321 89.8286 36.5581 88.7442C37.3235 86.8208 38.0383 84.8343 38.0521 82.774C38.0658 80.7136 37.2639 78.5474 35.5203 77.367C34.086 76.398 32.2393 76.2182 30.4915 76.2581C29.2199 76.2935 27.0227 75.9986 25.8612 76.4799C24.942 76.8717 24.4092 78.3486 24.2375 79.2198Z" fill="#EBADAD"/>
<path d="M81.6162 99.9095C82.3791 99.6279 83.22 99.7298 84.0378 99.8364C86.6704 100.184 89.3418 100.542 91.7818 101.56C92.9274 102.034 94.018 102.668 94.7925 103.602C95.4793 104.442 95.8806 105.471 96.2611 106.485L97.141 108.818C97.5151 109.694 97.773 110.613 97.9086 111.552C98.1836 114.345 96.2108 116.977 93.7296 118.428C91.2483 119.878 88.3272 120.395 85.4814 120.936C82.6357 121.477 79.7788 122.076 76.9448 122.71C75.6229 123.042 74.2818 123.297 72.9285 123.475C69.895 123.807 66.7242 123.318 63.8419 124.289C62.6963 124.677 61.5713 125.254 60.3831 125.522C59.5932 125.683 58.7946 125.801 57.9911 125.875L52.536 126.478C51.4267 126.621 50.31 126.704 49.1911 126.726C46.8084 126.726 44.4645 126.18 42.1508 125.634C41.905 125.592 41.6709 125.501 41.464 125.366C41.0975 125.086 41.0173 124.592 40.9645 124.144C40.7308 122.161 40.5264 120.176 40.3513 118.189C40.2963 117.544 40.2551 116.845 40.6194 116.302C41.0776 115.637 41.9712 115.428 42.7869 115.299C46.2455 114.752 49.7492 114.516 53.2528 114.596C54.5838 113.308 56.7788 113.301 58.5224 112.6C59.1639 112.315 59.7847 111.988 60.3806 111.622C63.4994 109.861 66.9847 108.795 70.5828 108.502C71.2875 108.481 71.9876 108.384 72.6701 108.214C74.0193 107.808 75.25 106.703 76.636 106.974C76.8077 106.515 76.9269 105.9 77.3228 105.586C77.5191 105.424 77.7627 105.315 77.9437 105.142C78.3264 104.767 78.3607 104.177 78.3033 103.654C78.2459 103.131 78.1176 102.594 78.2575 102.084C78.3156 101.89 78.4012 101.706 78.5118 101.536C79.1967 100.388 80.2346 99.7986 81.6162 99.9095Z" fill="#2F2E41"/>
<path d="M28.0758 62.944C27.8526 63.1702 27.6796 63.4382 27.5673 63.7314C25.7153 67.7716 24.6214 72.0986 24.3368 76.51C24.3418 76.7251 24.2906 76.938 24.1879 77.1288C24.0867 77.2558 23.974 77.3738 23.8511 77.4814C23.744 77.6043 23.663 77.7464 23.6126 77.8997C23.5623 78.0529 23.5436 78.2142 23.5576 78.3744C23.5717 78.5346 23.6182 78.6905 23.6945 78.8333C23.7708 78.9761 23.8754 79.103 24.0024 79.2067C24.0232 79.2237 24.0446 79.24 24.0665 79.2557C24.4445 78.5671 25.3495 78.342 26.1538 78.2821C30.0051 77.9872 33.7671 79.7215 37.6299 79.5907C37.3574 78.6791 36.9654 77.8032 36.7431 76.8807C35.7602 72.7844 38.2118 68.3247 36.7088 64.3792C36.4085 63.5897 35.9069 62.8134 35.1165 62.4675C34.7892 62.3397 34.4468 62.252 34.097 62.2063C33.121 62.0356 31.1779 61.3059 30.2342 61.5986C29.8859 61.7074 29.7485 62.0244 29.4598 62.216C29.0212 62.4872 28.4393 62.5869 28.0758 62.944Z" fill="#F5DF4D"/>
<path d="M81.5622 76.4799C80.4007 75.9986 78.2035 76.2935 76.9318 76.2581C75.184 76.2182 73.3374 76.398 71.9031 77.367C70.1594 78.5474 69.3575 80.7136 69.3713 82.774C69.385 84.8343 70.0998 86.8208 70.8652 88.7442C71.2913 89.8286 71.7404 90.9043 71.8893 92.0464C71.8893 92.0464 56.6508 93.7952 55.7309 94.5126C54.811 95.2299 54.3998 96.6648 55.1053 97.5519C55.8108 98.439 77.8242 99.3297 80.7225 98.7361C80.9652 98.742 81.2004 98.6545 81.3765 98.4928C81.5526 98.3311 81.6552 98.1083 81.6618 97.8734C81.9547 96.2191 82.1907 94.5624 82.3486 92.8924C82.4323 92.0319 82.4931 91.1714 82.5549 90.3087L83.2133 81.156C83.2868 80.512 83.2775 79.8616 83.1859 79.2198C83.0142 78.3486 82.4813 76.8717 81.5622 76.4799Z" fill="#EBADAD"/>
<path d="M77.9636 62.216C77.6748 62.0244 77.5375 61.7074 77.1891 61.5986C76.2454 61.3059 74.3024 62.0356 73.3263 62.2063C72.9766 62.252 72.6341 62.3397 72.3068 62.4675C71.5165 62.8134 71.0148 63.5897 70.7146 64.3792C69.2116 68.3247 71.6632 72.7844 70.6802 76.8807C70.458 77.8032 70.066 78.6791 69.7935 79.5907C73.6563 79.7215 77.4182 77.9872 81.2695 78.2821C82.0739 78.342 82.9788 78.5671 83.3568 79.2557C83.3787 79.24 83.4001 79.2237 83.4209 79.2067C83.5479 79.103 83.6525 78.9761 83.7288 78.8333C83.8051 78.6905 83.8516 78.5346 83.8657 78.3744C83.8797 78.2142 83.861 78.0529 83.8107 77.8997C83.7603 77.7464 83.6793 77.6043 83.5722 77.4814C83.4494 77.3738 83.3366 77.2558 83.2354 77.1288C83.1327 76.938 83.0815 76.7251 83.0865 76.51C82.8019 72.0986 81.708 67.7716 79.8561 63.7314C79.7438 63.4382 79.5707 63.1702 79.3476 62.944C78.984 62.5869 78.4022 62.4872 77.9636 62.216Z" fill="#F5DF4D"/>
<path d="M84.4057 122.298L83.7361 127.176L63.9797 126.997L64.9683 119.797L84.4057 122.298Z" fill="#EBADAD"/>
<path d="M89.4615 121.682L87.3018 137.411L87.0963 137.385C85.419 137.169 83.8989 136.317 82.8704 135.016C81.842 133.716 81.3894 132.073 81.6121 130.449L81.6122 130.449L82.9313 120.842L89.4615 121.682Z" fill="#2F2E41"/>
<path d="M37.9269 102.378C37.9269 102.6 37.5673 102.378 37.5344 102.141C37.2825 100.346 35.8114 98.8672 34.0977 98.1486C32.384 97.4301 30.4319 97.3924 28.5762 97.5631C25.7696 97.8202 22.6192 98.8605 21.5928 101.4C21.35 101.993 19.075 107.279 19.297 108.468C19.8951 111.639 22.1357 114.352 24.8507 116.23C27.5658 118.108 30.738 119.231 33.9025 120.243C42.2689 122.914 50.8527 124.898 59.5631 126.175C60.9743 126.382 62.3995 126.572 63.7511 127.011C64.9607 127.404 66.0926 127.992 67.275 128.453C70.0243 129.522 72.9822 129.903 75.9124 130.278C76.4118 130.34 76.9846 130.385 77.3535 130.056C77.8302 129.629 77.6724 128.883 77.5368 128.269C77.0395 125.933 77.4568 123.502 78.7076 121.447C79.1982 120.649 79.836 119.83 79.7433 118.907C79.6334 117.829 78.5244 117.066 77.42 116.893C76.3157 116.72 75.1931 116.975 74.0839 117.114C73.7037 117.199 73.3054 117.161 72.9498 117.006C72.785 116.898 72.6356 116.77 72.5053 116.624C71.7414 115.911 70.7637 115.45 69.7125 115.308C68.6613 115.166 67.5905 115.349 66.6538 115.833C66.2437 116.055 65.6236 115.56 65.1967 115.374L60.3785 113.262C54.8432 110.838 49.2804 108.403 43.4242 106.869C42.9569 106.78 42.5128 106.601 42.1182 106.343C41.8273 106.121 41.6188 105.82 41.3507 105.573C40.7663 105.039 39.9524 104.826 39.2521 104.447C38.5517 104.067 37.7665 103.139 37.9269 102.378Z" fill="#2F2E41"/>
<path d="M50.4001 99.1732C52.2968 99.1732 53.8344 97.6849 53.8344 95.8489C53.8344 94.013 52.2968 92.5246 50.4001 92.5246C48.5034 92.5246 46.9658 94.013 46.9658 95.8489C46.9658 97.6849 48.5034 99.1732 50.4001 99.1732Z" fill="#EBADAD"/>
<path d="M58.0045 99.1732C59.9012 99.1732 61.4388 97.6849 61.4388 95.8489C61.4388 94.013 59.9012 92.5246 58.0045 92.5246C56.1078 92.5246 54.5703 94.013 54.5703 95.8489C54.5703 97.6849 56.1078 99.1732 58.0045 99.1732Z" fill="#EBADAD"/>
<path d="M79.2034 103.34H32.0218C31.4709 103.339 30.9428 103.127 30.5533 102.75C30.1637 102.373 29.9446 101.862 29.944 101.329V73.6214C29.9446 73.0882 30.1637 72.577 30.5533 72.2C30.9428 71.8229 31.4709 71.6109 32.0218 71.6103H79.2034C79.7542 71.6109 80.2823 71.8229 80.6718 72.2C81.0614 72.577 81.2805 73.0882 81.2812 73.6214V101.329C81.2805 101.862 81.0614 102.373 80.6718 102.75C80.2823 103.127 79.7542 103.339 79.2034 103.34Z" fill="#3F3D56"/>
<path d="M55.4981 88.8057C56.2573 88.8057 56.8728 88.21 56.8728 87.4751C56.8728 86.7401 56.2573 86.1444 55.4981 86.1444C54.7389 86.1444 54.1234 86.7401 54.1234 87.4751C54.1234 88.21 54.7389 88.8057 55.4981 88.8057Z" fill="#F6F8FA"/>
</svg>
