<svg width="221" height="124" viewBox="0 0 221 124" fill="none" xmlns="http://www.w3.org/2000/svg">
<g clip-path="url(#clip0)">
<path opacity="0.1" d="M221 79.5915C221.003 82.96 220.557 86.3128 219.677 89.5545C218.826 92.6797 217.574 95.6714 215.954 98.449C215.954 108.513 209.421 117.21 199.937 121.348C195.975 123.06 191.724 123.934 187.433 123.919H41.9534C34.1778 123.919 26.9721 121.738 21.0627 118.022C19.3715 116.963 17.7671 115.761 16.266 114.428C9.69782 108.559 5.62554 100.448 5.62554 91.4889C1.93928 85.5868 -0.0153532 78.6967 9.08173e-05 71.6592C9.08173e-05 56.9235 8.38225 44.2527 20.3904 38.6585C21.985 37.916 23.6326 37.3035 25.3185 36.8266C25.9148 36.6579 26.5175 36.5065 27.1267 36.3726C28.7506 36.0131 30.3977 35.7781 32.0547 35.6696C32.6536 35.6308 33.2557 35.6087 33.861 35.6033H34.1933C34.8617 35.6033 35.5243 35.6274 36.183 35.6676L36.3994 35.2859C36.6647 34.8253 36.9365 34.3693 37.2146 33.918C37.7169 33.0958 38.2436 32.2856 38.7949 31.4875C39.3718 30.6452 39.9739 29.8163 40.6011 29.0008L40.7615 28.7999C41.1169 28.3392 41.4801 27.8839 41.851 27.434C43.0101 26.0293 44.2336 24.6667 45.5215 23.3463C59.4518 9.14894 81.2755 0.00942993 105.81 0.00942993C124.9 0.00942993 142.35 5.54335 155.716 14.6869C160.78 11.7073 166.5 10.1439 172.318 10.1493C191.2 10.1493 206.511 26.2931 206.511 46.2071C206.509 47.4672 206.444 48.7262 206.318 49.9795C210.87 53.3295 214.579 57.7687 217.135 62.9224C219.69 68.0761 221.016 73.7932 221 79.5915V79.5915Z" fill="#4469AD"/>
<path opacity="0.2" d="M45.5252 23.3369V27.4245H41.8547C43.0048 26.0211 44.2283 24.6586 45.5252 23.3369Z" fill="#4469AD"/>
<path opacity="0.2" d="M52.2614 22.3004H47.3334V27.4246H52.2614V22.3004Z" fill="#4469AD"/>
<path opacity="0.2" d="M58.9958 22.3004H54.0677V27.4246H58.9958V22.3004Z" fill="#4469AD"/>
<path opacity="0.2" d="M65.732 22.3004H60.804V27.4246H65.732V22.3004Z" fill="#4469AD"/>
<path opacity="0.2" d="M72.4664 22.3004H67.5383V27.4246H72.4664V22.3004Z" fill="#4469AD"/>
<path opacity="0.2" d="M79.2027 22.3004H74.2747V27.4246H79.2027V22.3004Z" fill="#4469AD"/>
<path d="M85.9389 22.3004H81.0109V27.4246H85.9389V22.3004Z" fill="#4469AD"/>
<path opacity="0.2" d="M92.6732 22.3004H87.7451V27.4246H92.6732V22.3004Z" fill="#4469AD"/>
<path opacity="0.2" d="M99.4095 22.3004H94.4814V27.4246H99.4095V22.3004Z" fill="#4469AD"/>
<path opacity="0.2" d="M106.144 22.3004H101.216V27.4246H106.144V22.3004Z" fill="#4469AD"/>
<path d="M112.88 22.3004H107.952V27.4246H112.88V22.3004Z" fill="#4469AD"/>
<path opacity="0.2" d="M119.616 22.3004H114.688V27.4246H119.616V22.3004Z" fill="#4469AD"/>
<path opacity="0.2" d="M126.351 22.3004H121.422V27.4246H126.351V22.3004Z" fill="#4469AD"/>
<path opacity="0.2" d="M133.087 22.3004H128.159V27.4246H133.087V22.3004Z" fill="#4469AD"/>
<path opacity="0.2" d="M139.823 22.3004H134.895V27.4246H139.823V22.3004Z" fill="#4469AD"/>
<path opacity="0.2" d="M146.557 22.3004H141.629V27.4246H146.557V22.3004Z" fill="#4469AD"/>
<path opacity="0.2" d="M153.294 22.3004H148.366V27.4246H153.294V22.3004Z" fill="#4469AD"/>
<path d="M160.028 22.3004H155.1V27.4246H160.028V22.3004Z" fill="#4469AD"/>
<path d="M166.764 22.3004H161.836V27.4246H166.764V22.3004Z" fill="#4469AD"/>
<path opacity="0.2" d="M173.501 22.3004H168.573V27.4246H173.501V22.3004Z" fill="#4469AD"/>
<path opacity="0.2" d="M180.235 22.3004H175.307V27.4246H180.235V22.3004Z" fill="#4469AD"/>
<path d="M186.971 22.3004H182.043V27.4246H186.971V22.3004Z" fill="#4469AD"/>
<path d="M193.705 22.3004H188.777V27.4246H193.705V22.3004Z" fill="#4469AD"/>
<path d="M38.7909 31.4841V33.9146H37.2107C37.713 33.087 38.2397 32.2768 38.7909 31.4841Z" fill="#4469AD"/>
<path opacity="0.2" d="M45.5252 28.7905H40.5972V33.9146H45.5252V28.7905Z" fill="#4469AD"/>
<path d="M52.2614 28.7905H47.3334V33.9146H52.2614V28.7905Z" fill="#4469AD"/>
<path opacity="0.2" d="M58.9958 28.7905H54.0677V33.9146H58.9958V28.7905Z" fill="#4469AD"/>
<path opacity="0.7" d="M65.732 28.7905H60.804V33.9146H65.732V28.7905Z" fill="#4469AD"/>
<path opacity="0.2" d="M72.4664 28.7905H67.5383V33.9146H72.4664V28.7905Z" fill="#4469AD"/>
<path opacity="0.4" d="M79.2027 28.7905H74.2747V33.9146H79.2027V28.7905Z" fill="#4469AD"/>
<path d="M85.9389 28.7905H81.0109V33.9146H85.9389V28.7905Z" fill="#4469AD"/>
<path opacity="0.4" d="M92.6732 28.7905H87.7451V33.9146H92.6732V28.7905Z" fill="#4469AD"/>
<path opacity="0.2" d="M99.4095 28.7905H94.4814V33.9146H99.4095V28.7905Z" fill="#4469AD"/>
<path opacity="0.4" d="M106.144 28.7905H101.216V33.9146H106.144V28.7905Z" fill="#4469AD"/>
<path d="M112.88 28.7905H107.952V33.9146H112.88V28.7905Z" fill="#4469AD"/>
<path opacity="0.4" d="M119.616 28.7905H114.688V33.9146H119.616V28.7905Z" fill="#4469AD"/>
<path opacity="0.4" d="M126.351 28.7905H121.422V33.9146H126.351V28.7905Z" fill="#4469AD"/>
<path opacity="0.2" d="M133.087 28.7905H128.159V33.9146H133.087V28.7905Z" fill="#4469AD"/>
<path opacity="0.4" d="M139.823 28.7905H134.895V33.9146H139.823V28.7905Z" fill="#4469AD"/>
<path opacity="0.4" d="M146.557 28.7905H141.629V33.9146H146.557V28.7905Z" fill="#4469AD"/>
<path opacity="0.2" d="M153.294 28.7905H148.366V33.9146H153.294V28.7905Z" fill="#4469AD"/>
<path opacity="0.2" d="M160.028 28.7905H155.1V33.9146H160.028V28.7905Z" fill="#4469AD"/>
<path opacity="0.4" d="M166.764 28.7905H161.836V33.9146H166.764V28.7905Z" fill="#4469AD"/>
<path opacity="0.2" d="M173.501 28.7905H168.573V33.9146H173.501V28.7905Z" fill="#4469AD"/>
<path d="M180.235 28.7905H175.307V33.9146H180.235V28.7905Z" fill="#4469AD"/>
<path d="M186.971 28.7905H182.043V33.9146H186.971V28.7905Z" fill="#4469AD"/>
<path d="M193.705 28.7905H188.777V33.9146H193.705V28.7905Z" fill="#4469AD"/>
<path opacity="0.2" d="M25.3183 36.8252V40.4067H20.3903V38.6571C21.9848 37.9146 23.6325 37.3021 25.3183 36.8252V36.8252Z" fill="#4469AD"/>
<path opacity="0.2" d="M32.0547 35.6682V40.4067H27.1266V36.3712L32.0547 35.6682Z" fill="#4469AD"/>
<path d="M38.7889 35.2825H33.8608V40.4067H38.7889V35.2825Z" fill="#4469AD"/>
<path opacity="0.7" d="M45.5252 35.2825H40.5972V40.4067H45.5252V35.2825Z" fill="#4469AD"/>
<path d="M52.2614 35.2825H47.3334V40.4067H52.2614V35.2825Z" fill="#4469AD"/>
<path opacity="0.7" d="M58.9958 35.2825H54.0677V40.4067H58.9958V35.2825Z" fill="#4469AD"/>
<path opacity="0.7" d="M65.732 35.2825H60.804V40.4067H65.732V35.2825Z" fill="#4469AD"/>
<path opacity="0.2" d="M72.4664 35.2825H67.5383V40.4067H72.4664V35.2825Z" fill="#4469AD"/>
<path opacity="0.4" d="M79.2027 35.2825H74.2747V40.4067H79.2027V35.2825Z" fill="#4469AD"/>
<path opacity="0.4" d="M85.9389 35.2825H81.0109V40.4067H85.9389V35.2825Z" fill="#4469AD"/>
<path d="M92.6732 35.2825H87.7451V40.4067H92.6732V35.2825Z" fill="#4469AD"/>
<path opacity="0.2" d="M99.4095 35.2825H94.4814V40.4067H99.4095V35.2825Z" fill="#4469AD"/>
<path opacity="0.4" d="M106.144 35.2825H101.216V40.4067H106.144V35.2825Z" fill="#4469AD"/>
<path d="M112.88 35.2825H107.952V40.4067H112.88V35.2825Z" fill="#4469AD"/>
<path opacity="0.2" d="M119.616 35.2825H114.688V40.4067H119.616V35.2825Z" fill="#4469AD"/>
<path opacity="0.4" d="M126.351 35.2825H121.422V40.4067H126.351V35.2825Z" fill="#4469AD"/>
<path opacity="0.2" d="M133.087 35.2825H128.159V40.4067H133.087V35.2825Z" fill="#4469AD"/>
<path d="M139.823 35.2825H134.895V40.4067H139.823V35.2825Z" fill="#4469AD"/>
<path opacity="0.2" d="M146.557 35.2825H141.629V40.4067H146.557V35.2825Z" fill="#4469AD"/>
<path opacity="0.7" d="M153.294 35.2825H148.366V40.4067H153.294V35.2825Z" fill="#4469AD"/>
<path opacity="0.7" d="M160.028 35.2825H155.1V40.4067H160.028V35.2825Z" fill="#4469AD"/>
<path opacity="0.4" d="M166.764 35.2825H161.836V40.4067H166.764V35.2825Z" fill="#4469AD"/>
<path opacity="0.2" d="M173.501 35.2825H168.573V40.4067H173.501V35.2825Z" fill="#4469AD"/>
<path d="M180.235 35.2825H175.307V40.4067H180.235V35.2825Z" fill="#4469AD"/>
<path d="M186.971 35.2825H182.043V40.4067H186.971V35.2825Z" fill="#4469AD"/>
<path d="M193.705 35.2825H188.777V40.4067H193.705V35.2825Z" fill="#4469AD"/>
<path opacity="0.2" d="M25.3183 41.7726H20.3903V46.8967H25.3183V41.7726Z" fill="#4469AD"/>
<path opacity="0.2" d="M32.0547 41.7726H27.1266V46.8967H32.0547V41.7726Z" fill="#4469AD"/>
<path opacity="0.2" d="M38.7889 41.7726H33.8608V46.8967H38.7889V41.7726Z" fill="#4469AD"/>
<path opacity="0.2" d="M45.5252 41.7726H40.5972V46.8967H45.5252V41.7726Z" fill="#4469AD"/>
<path d="M52.2614 41.7726H47.3334V46.8967H52.2614V41.7726Z" fill="#4469AD"/>
<path opacity="0.7" d="M58.9958 41.7726H54.0677V46.8967H58.9958V41.7726Z" fill="#4469AD"/>
<path opacity="0.7" d="M65.732 41.7726H60.804V46.8967H65.732V41.7726Z" fill="#4469AD"/>
<path opacity="0.2" d="M72.4664 41.7726H67.5383V46.8967H72.4664V41.7726Z" fill="#4469AD"/>
<path opacity="0.2" d="M79.2027 41.7726H74.2747V46.8967H79.2027V41.7726Z" fill="#4469AD"/>
<path opacity="0.4" d="M85.9389 41.7726H81.0109V46.8967H85.9389V41.7726Z" fill="#4469AD"/>
<path opacity="0.4" d="M92.6732 41.7726H87.7451V46.8967H92.6732V41.7726Z" fill="#4469AD"/>
<path d="M99.4095 41.7726H94.4814V46.8967H99.4095V41.7726Z" fill="#4469AD"/>
<path opacity="0.2" d="M106.144 41.7726H101.216V46.8967H106.144V41.7726Z" fill="#4469AD"/>
<path opacity="0.4" d="M112.88 41.7726H107.952V46.8967H112.88V41.7726Z" fill="#4469AD"/>
<path opacity="0.4" d="M119.616 41.7726H114.688V46.8967H119.616V41.7726Z" fill="#4469AD"/>
<path opacity="0.4" d="M126.351 41.7726H121.422V46.8967H126.351V41.7726Z" fill="#4469AD"/>
<path opacity="0.4" d="M133.087 41.7726H128.159V46.8967H133.087V41.7726Z" fill="#4469AD"/>
<path opacity="0.2" d="M139.823 41.7726H134.895V46.8967H139.823V41.7726Z" fill="#4469AD"/>
<path opacity="0.2" d="M146.557 41.7726H141.629V46.8967H146.557V41.7726Z" fill="#4469AD"/>
<path opacity="0.2" d="M153.294 41.7726H148.366V46.8967H153.294V41.7726Z" fill="#4469AD"/>
<path opacity="0.2" d="M160.028 41.7726H155.1V46.8967H160.028V41.7726Z" fill="#4469AD"/>
<path opacity="0.7" d="M166.764 41.7726H161.836V46.8967H166.764V41.7726Z" fill="#4469AD"/>
<path opacity="0.7" d="M173.501 41.7726H168.573V46.8967H173.501V41.7726Z" fill="#4469AD"/>
<path opacity="0.4" d="M180.235 41.7726H175.307V46.8967H180.235V41.7726Z" fill="#4469AD"/>
<path opacity="0.2" d="M186.971 41.7726H182.043V46.8967H186.971V41.7726Z" fill="#4469AD"/>
<path d="M193.705 41.7726H188.777V46.8967H193.705V41.7726Z" fill="#4469AD"/>
<path opacity="0.2" d="M25.3183 48.2646H20.3903V53.3888H25.3183V48.2646Z" fill="#4469AD"/>
<path opacity="0.2" d="M32.0547 48.2646H27.1266V53.3888H32.0547V48.2646Z" fill="#4469AD"/>
<path opacity="0.4" d="M38.7889 48.2646H33.8608V53.3888H38.7889V48.2646Z" fill="#4469AD"/>
<path opacity="0.2" d="M45.5252 48.2646H40.5972V53.3888H45.5252V48.2646Z" fill="#4469AD"/>
<path opacity="0.2" d="M52.2614 48.2646H47.3334V53.3888H52.2614V48.2646Z" fill="#4469AD"/>
<path opacity="0.7" d="M58.9958 48.2646H54.0677V53.3888H58.9958V48.2646Z" fill="#4469AD"/>
<path opacity="0.7" d="M65.732 48.2646H60.804V53.3888H65.732V48.2646Z" fill="#4469AD"/>
<path opacity="0.2" d="M72.4664 48.2646H67.5383V53.3888H72.4664V48.2646Z" fill="#4469AD"/>
<path opacity="0.2" d="M79.2027 48.2646H74.2747V53.3888H79.2027V48.2646Z" fill="#4469AD"/>
<path opacity="0.4" d="M85.9389 48.2646H81.0109V53.3888H85.9389V48.2646Z" fill="#4469AD"/>
<path d="M92.6732 48.2646H87.7451V53.3888H92.6732V48.2646Z" fill="#4469AD"/>
<path opacity="0.2" d="M99.4095 48.2646H94.4814V53.3888H99.4095V48.2646Z" fill="#4469AD"/>
<path d="M106.144 48.2646H101.216V53.3888H106.144V48.2646Z" fill="#4469AD"/>
<path d="M112.88 48.2646H107.952V53.3888H112.88V48.2646Z" fill="#4469AD"/>
<path d="M119.616 48.2646H114.688V53.3888H119.616V48.2646Z" fill="#4469AD"/>
<path opacity="0.2" d="M126.351 48.2646H121.422V53.3888H126.351V48.2646Z" fill="#4469AD"/>
<path d="M133.087 48.2646H128.159V53.3888H133.087V48.2646Z" fill="#4469AD"/>
<path opacity="0.2" d="M139.823 48.2646H134.895V53.3888H139.823V48.2646Z" fill="#4469AD"/>
<path opacity="0.2" d="M146.557 48.2646H141.629V53.3888H146.557V48.2646Z" fill="#4469AD"/>
<path opacity="0.2" d="M153.294 48.2646H148.366V53.3888H153.294V48.2646Z" fill="#4469AD"/>
<path opacity="0.2" d="M160.028 48.2646H155.1V53.3888H160.028V48.2646Z" fill="#4469AD"/>
<path opacity="0.2" d="M166.764 48.2646H161.836V53.3888H166.764V48.2646Z" fill="#4469AD"/>
<path opacity="0.7" d="M173.501 48.2646H168.573V53.3888H173.501V48.2646Z" fill="#4469AD"/>
<path opacity="0.2" d="M180.235 48.2646H175.307V53.3888H180.235V48.2646Z" fill="#4469AD"/>
<path opacity="0.2" d="M186.971 48.2646H182.043V53.3888H186.971V48.2646Z" fill="#4469AD"/>
<path d="M193.705 48.2646H188.777V53.3888H193.705V48.2646Z" fill="#4469AD"/>
<path opacity="0.2" d="M25.3183 54.7547H20.3903V59.8788H25.3183V54.7547Z" fill="#4469AD"/>
<path opacity="0.2" d="M32.0547 54.7547H27.1266V59.8788H32.0547V54.7547Z" fill="#4469AD"/>
<path opacity="0.2" d="M38.7889 54.7547H33.8608V59.8788H38.7889V54.7547Z" fill="#4469AD"/>
<path opacity="0.4" d="M45.5252 54.7547H40.5972V59.8788H45.5252V54.7547Z" fill="#4469AD"/>
<path opacity="0.2" d="M52.2614 54.7547H47.3334V59.8788H52.2614V54.7547Z" fill="#4469AD"/>
<path opacity="0.2" d="M58.9958 54.7547H54.0677V59.8788H58.9958V54.7547Z" fill="#4469AD"/>
<path opacity="0.7" d="M65.732 54.7547H60.804V59.8788H65.732V54.7547Z" fill="#4469AD"/>
<path opacity="0.2" d="M72.4664 54.7547H67.5383V59.8788H72.4664V54.7547Z" fill="#4469AD"/>
<path opacity="0.2" d="M79.2027 54.7547H74.2747V59.8788H79.2027V54.7547Z" fill="#4469AD"/>
<path opacity="0.2" d="M85.9389 54.7547H81.0109V59.8788H85.9389V54.7547Z" fill="#4469AD"/>
<path d="M92.6732 54.7547H87.7451V59.8788H92.6732V54.7547Z" fill="#4469AD"/>
<path opacity="0.2" d="M99.4095 54.7547H94.4814V59.8788H99.4095V54.7547Z" fill="#4469AD"/>
<path d="M106.144 54.7547H101.216V59.8788H106.144V54.7547Z" fill="#4469AD"/>
<path d="M112.88 54.7547H107.952V59.8788H112.88V54.7547Z" fill="#4469AD"/>
<path opacity="0.2" d="M119.616 54.7547H114.688V59.8788H119.616V54.7547Z" fill="#4469AD"/>
<path opacity="0.2" d="M126.351 54.7547H121.422V59.8788H126.351V54.7547Z" fill="#4469AD"/>
<path opacity="0.2" d="M133.087 54.7547H128.159V59.8788H133.087V54.7547Z" fill="#4469AD"/>
<path opacity="0.2" d="M139.823 54.7547H134.895V59.8788H139.823V54.7547Z" fill="#4469AD"/>
<path opacity="0.2" d="M146.557 54.7547H141.629V59.8788H146.557V54.7547Z" fill="#4469AD"/>
<path opacity="0.2" d="M153.294 54.7547H148.366V59.8788H153.294V54.7547Z" fill="#4469AD"/>
<path opacity="0.2" d="M160.028 54.7547H155.1V59.8788H160.028V54.7547Z" fill="#4469AD"/>
<path opacity="0.2" d="M166.764 54.7547H161.836V59.8788H166.764V54.7547Z" fill="#4469AD"/>
<path opacity="0.2" d="M173.501 54.7547H168.573V59.8788H173.501V54.7547Z" fill="#4469AD"/>
<path opacity="0.2" d="M180.235 54.7547H175.307V59.8788H180.235V54.7547Z" fill="#4469AD"/>
<path opacity="0.4" d="M186.971 54.7547H182.043V59.8788H186.971V54.7547Z" fill="#4469AD"/>
<path d="M193.705 54.7547H188.777V59.8788H193.705V54.7547Z" fill="#4469AD"/>
<path opacity="0.7" d="M25.3183 61.2468H20.3903V66.3709H25.3183V61.2468Z" fill="#4469AD"/>
<path opacity="0.7" d="M32.0547 61.2468H27.1266V66.3709H32.0547V61.2468Z" fill="#4469AD"/>
<path opacity="0.7" d="M38.7889 61.2468H33.8608V66.3709H38.7889V61.2468Z" fill="#4469AD"/>
<path opacity="0.7" d="M45.5252 61.2468H40.5972V66.3709H45.5252V61.2468Z" fill="#4469AD"/>
<path opacity="0.7" d="M52.2614 61.2468H47.3334V66.3709H52.2614V61.2468Z" fill="#4469AD"/>
<path opacity="0.2" d="M58.9958 61.2468H54.0677V66.3709H58.9958V61.2468Z" fill="#4469AD"/>
<path opacity="0.2" d="M65.732 61.2468H60.804V66.3709H65.732V61.2468Z" fill="#4469AD"/>
<path opacity="0.2" d="M72.4664 61.2468H67.5383V66.3709H72.4664V61.2468Z" fill="#4469AD"/>
<path opacity="0.2" d="M79.2027 61.2468H74.2747V66.3709H79.2027V61.2468Z" fill="#4469AD"/>
<path opacity="0.2" d="M85.9389 61.2468H81.0109V66.3709H85.9389V61.2468Z" fill="#4469AD"/>
<path opacity="0.2" d="M92.6732 61.2468H87.7451V66.3709H92.6732V61.2468Z" fill="#4469AD"/>
<path d="M99.4095 61.2468H94.4814V66.3709H99.4095V61.2468Z" fill="#4469AD"/>
<path opacity="0.2" d="M106.144 61.2468H101.216V66.3709H106.144V61.2468Z" fill="#4469AD"/>
<path opacity="0.2" d="M112.88 61.2468H107.952V66.3709H112.88V61.2468Z" fill="#4469AD"/>
<path opacity="0.2" d="M119.616 61.2468H114.688V66.3709H119.616V61.2468Z" fill="#4469AD"/>
<path d="M126.351 61.2468H121.422V66.3709H126.351V61.2468Z" fill="#4469AD"/>
<path opacity="0.2" d="M133.087 61.2468H128.159V66.3709H133.087V61.2468Z" fill="#4469AD"/>
<path opacity="0.2" d="M139.823 61.2468H134.895V66.3709H139.823V61.2468Z" fill="#4469AD"/>
<path opacity="0.2" d="M146.557 61.2468H141.629V66.3709H146.557V61.2468Z" fill="#4469AD"/>
<path opacity="0.2" d="M153.294 61.2468H148.366V66.3709H153.294V61.2468Z" fill="#4469AD"/>
<path opacity="0.2" d="M160.028 61.2468H155.1V66.3709H160.028V61.2468Z" fill="#4469AD"/>
<path opacity="0.2" d="M166.764 61.2468H161.836V66.3709H166.764V61.2468Z" fill="#4469AD"/>
<path opacity="0.2" d="M173.501 61.2468H168.573V66.3709H173.501V61.2468Z" fill="#4469AD"/>
<path opacity="0.2" d="M180.235 61.2468H175.307V66.3709H180.235V61.2468Z" fill="#4469AD"/>
<path opacity="0.2" d="M186.971 61.2468H182.043V66.3709H186.971V61.2468Z" fill="#4469AD"/>
<path d="M193.705 61.2468H188.777V66.3709H193.705V61.2468Z" fill="#4469AD"/>
<path d="M141.896 80.0983C145.616 80.0983 148.632 76.9623 148.632 73.094C148.632 69.2256 145.616 66.0897 141.896 66.0897C138.176 66.0897 135.16 69.2256 135.16 73.094C135.16 76.9623 138.176 80.0983 141.896 80.0983Z" fill="#767D9F"/>
<path d="M141.546 64.1834C142.219 67.234 142.789 70.3072 143.258 73.4033C143.399 74.3233 143.524 75.2935 143.204 76.1632C142.935 76.8884 142.388 77.4548 141.96 78.0895C141.531 78.7243 141.206 79.5378 141.467 80.2649C141.728 80.9921 142.489 81.3898 143.215 81.5947C145.294 82.1772 147.51 81.7534 149.579 81.1227C150.516 80.8719 151.414 80.4851 152.247 79.9737C153.124 79.3952 153.842 78.5917 154.503 77.7641C157.519 73.9617 159.493 69.398 161.351 64.8624C160.157 64.9754 158.954 64.7913 157.842 64.3254C156.73 63.8594 155.74 63.125 154.955 62.1828C154.194 61.2528 153.636 59.9572 154.064 58.8203C152.807 59.5374 151.314 59.5856 149.959 60.0757C149.119 60.4092 148.311 60.8227 147.545 61.311C146.62 61.8668 145.7 62.4332 144.786 63.0104C143.741 63.6652 142.761 64.2477 141.546 64.1834Z" fill="#D8B692"/>
<path d="M155.635 69.4422C154.455 71.8305 152.919 74.1264 150.726 75.5486C148.534 76.9707 145.582 77.3564 143.385 75.9503C142.303 75.2633 141.484 74.2188 140.54 73.339C139.595 72.4592 138.415 71.706 137.146 71.8205C135.747 71.947 134.652 73.0819 133.715 74.1686C132.293 75.8197 130.919 77.5412 129.913 79.4956C127.981 83.2519 127.523 87.6429 127.608 91.9013C127.693 96.1597 128.286 100.396 128.3 104.654C128.319 109.893 127.465 115.09 126.602 120.25C134.541 119.233 142.491 121.455 150.448 122.297C155.54 122.841 160.671 122.829 165.791 122.815C166.691 122.815 167.649 122.791 168.398 122.273C168.857 121.925 169.227 121.467 169.478 120.939C170.185 119.583 170.469 118.036 170.666 116.508C171.167 112.647 171.182 108.738 171.196 104.841C171.231 95.4004 171.263 85.9254 170.11 76.5589C169.826 74.255 169.463 71.939 168.613 69.7837C167.763 67.6283 166.376 65.6458 164.436 64.4908C163.19 63.7476 160.302 62.454 158.834 63.2032C157.186 64.0388 156.425 67.8433 155.635 69.4422Z" fill="#767D9F"/>
<path d="M156.222 96.1014C155.923 90.2762 154.704 84.0594 157.298 78.889C157.936 77.6195 155.649 76.0347 156.356 74.8053C157.218 73.3065 157.873 71.6882 158.299 69.9986C158.446 69.4181 158.564 68.8034 158.425 68.2209C158.168 67.1583 157.157 66.5256 156.3 65.8788C155.353 65.1637 154.866 62.9842 154.561 61.8052C154.256 60.6261 156.989 62.0462 158.088 61.6264C159.615 61.0459 161.554 61.4115 163.076 62C163.926 62.3254 164.85 62.3535 165.756 62.3776C167.516 62.4258 169.281 62.472 171.028 62.2471C171.812 62.1446 172.598 61.9899 173.386 62.0361C175.398 62.1547 177.146 63.5848 178.336 65.2762C179.526 66.9675 180.283 68.938 181.259 70.7699C182.072 72.2965 183.042 73.7387 183.735 75.3276C184.35 76.7337 184.738 78.2442 185.122 79.7467L186.113 83.6014C186.287 84.1528 186.369 84.7308 186.357 85.3108C186.306 85.9274 186.044 86.5019 185.777 87.0503C184.769 89.0828 183.56 91.0007 182.17 92.773C180.086 95.4305 177.555 97.8269 176.317 101.009C175.834 102.248 175.566 103.566 175.32 104.879C174.331 110.133 173.628 115.442 173.215 120.778C170.957 119.692 168.591 118.869 166.16 118.325C164.947 118.056 163.722 117.855 162.489 117.723C161.409 117.606 160.016 117.827 158.989 117.522C157.269 117.014 157.08 113.991 156.819 112.408C156.402 109.887 156.319 107.322 156.303 104.775C156.284 101.878 156.371 98.9879 156.222 96.1014Z" fill="#4C4981"/>
<path d="M118.465 85.2083C119.278 90.0292 120.174 94.8641 121.942 99.3937C121.898 99.4379 121.853 99.478 121.809 99.5182C121.652 99.6568 121.49 99.7874 121.32 99.92C120.924 100.209 120.489 100.454 120.161 100.832C120.037 100.976 119.938 101.143 119.871 101.324C119.811 101.465 119.779 101.618 119.779 101.773C119.779 101.928 119.811 102.081 119.871 102.222C118.95 102.646 117.879 102.515 116.846 102.475C115.955 102.441 115.092 102.475 114.377 102.983C113.384 103.694 113.085 105.06 112.924 106.302C112.865 106.754 112.814 107.207 112.772 107.661C112.731 108.083 112.697 108.506 112.671 108.931C112.584 110.335 112.571 111.743 112.635 113.149C112.645 113.406 112.658 113.663 112.675 113.92C109.519 113.842 106.642 112.131 103.92 110.468C103.298 110.088 102.657 109.688 102.253 109.061C101.881 108.446 101.723 107.716 101.807 106.995C101.807 106.892 101.824 106.794 101.838 106.689C101.924 106.093 102.073 105.509 102.28 104.946C103.132 102.548 104.387 100.327 105.987 98.3873C106.679 97.5477 107.457 96.7261 107.78 95.6716C107.921 95.2116 107.973 94.7235 108.116 94.2655C108.757 92.2809 111.072 91.3429 111.864 89.4165C112.057 88.9565 112.146 88.4524 112.385 88.0105C112.601 87.6432 112.879 87.3199 113.206 87.0563C113.347 86.9338 113.494 86.8153 113.639 86.6968C114.997 85.5907 116.304 84.4223 117.563 83.1916C117.797 82.9626 118.029 82.731 118.258 82.4966C118.228 83.4058 118.297 84.3156 118.465 85.2083V85.2083Z" fill="#4C4981"/>
<path d="M137.932 70.9507C137.654 71.256 137.352 71.5433 137.057 71.8285L136.978 71.9028L136.665 72.2041C136.097 72.7139 135.605 73.309 135.206 73.9698L135.173 74.026C134.188 75.8599 134.553 78.1177 134.827 80.2007C135.168 82.7965 135.321 85.415 135.285 88.0345C135.235 91.6502 134.826 95.2417 134.818 98.8533C134.818 99.6728 134.835 100.49 134.87 101.31C134.926 102.642 135.023 103.971 135.138 105.301C135.264 106.759 135.415 108.216 135.556 109.672C135.668 110.799 135.774 111.924 135.863 113.049C135.907 113.631 135.95 114.212 135.985 114.794C136.025 115.477 136.058 116.162 136.077 116.845C136.091 117.279 136.099 117.711 136.099 118.145C136.099 118.392 136.099 118.637 136.099 118.882C136.099 119.352 136.086 119.821 136.062 120.288C136.036 120.889 135.997 121.492 135.944 122.096C135.884 122.753 135.778 123.47 135.334 123.932C135.307 123.96 135.278 123.986 135.249 124.012L134.623 123.932C130.308 123.395 125.952 123.314 121.622 123.691C121.716 123.012 121.803 122.335 121.888 121.654C121.927 121.332 121.965 121.009 122.002 120.686C122.045 120.316 122.085 119.946 122.124 119.577C122.168 119.175 122.209 118.773 122.247 118.372C122.348 117.337 122.436 116.301 122.512 115.264C122.624 113.752 122.709 112.238 122.767 110.721C122.795 109.996 122.817 109.271 122.833 108.545C122.855 107.645 122.865 106.745 122.864 105.844C122.864 104.968 122.857 104.091 122.842 103.212C122.842 102.923 122.831 102.634 122.808 102.346C122.791 102.088 122.757 101.831 122.705 101.577C122.562 100.992 122.368 100.422 122.126 99.8737C122.083 99.7693 122.043 99.6728 122.002 99.5624C121.979 99.5081 121.958 99.4519 121.936 99.3977C123.049 98.3672 123.841 96.9872 124.602 95.6294C125.837 93.4419 127.1 91.1581 127.307 88.6311C127.514 86.1042 126.306 83.2659 123.984 82.4946C123.352 82.2937 122.684 82.2375 122.033 82.119C121.419 82.0065 120.138 81.7514 119.427 81.2934C119.041 81.7059 118.654 82.1109 118.268 82.5087C118.291 81.9018 118.434 81.3064 118.687 80.7591L118.961 80.7732C118.939 80.7088 118.929 80.6407 118.931 80.5723C118.931 80.3574 119.074 80.1143 119.379 79.8452C120.289 79.0417 121.72 78.8629 122.294 77.7762C122.533 77.3243 122.574 76.7859 122.767 76.3119C123.322 74.96 124.913 74.4619 125.872 73.3812C126.83 72.3006 127.069 70.7699 127.844 69.5647C128.423 68.6846 129.225 67.9892 130.162 67.5561C130.239 67.5179 130.319 67.4797 130.398 67.4456C132.001 66.7325 133.906 66.5698 135.567 66.5738C136.213 66.5738 137.886 66.5939 138.705 66.9334C138.837 66.9827 138.959 67.06 139.062 67.1603C139.935 68.1486 138.577 70.2356 137.932 70.9507Z" fill="#4C4981"/>
<path d="M118.753 80.6185C120.245 80.1513 121.812 79.9973 123.362 80.1652C124.912 80.3331 126.414 80.8197 127.782 81.5967C129.173 82.4002 130.421 83.521 131.186 84.9673C132.335 87.1367 132.285 89.752 132.204 92.2287C132.163 93.468 132.111 94.7516 131.586 95.8644C130.977 97.1519 129.83 98.0358 128.659 98.7589C127.926 99.2454 127.122 99.6068 126.279 99.8295C124.981 100.123 123.633 99.8737 122.325 99.6286C120.903 99.3555 119.377 99.026 118.39 97.9253C117.81 97.2865 117.493 96.4569 117.18 95.6454C116.731 94.4737 116.28 93.3033 115.828 92.1343C115.046 90.1035 114.781 88.4142 115.815 86.4356C116.284 85.5337 116.858 84.6901 117.321 83.7822C117.553 83.3202 118.384 80.737 118.753 80.6185Z" fill="#4C4981"/>
<path d="M199.943 115.343V121.349C195.98 123.06 191.73 123.934 187.439 123.92H135.339C135.312 123.948 135.283 123.974 135.254 124L134.628 123.92H41.9533C34.1777 123.92 26.9721 121.738 21.0626 118.022V108.853L65.6335 103.503H65.6683L91.6242 105.789L98.3411 106.392L101.83 106.699L109.051 107.336L112.766 107.663L118.175 108.141L118.936 108.208L122.835 108.551L128.124 109.003L135.561 109.658L147.96 110.753L156.682 111.522L171.005 112.786L173.728 113.025L174.022 113.051L174.277 113.073L177.874 113.39L181.823 113.74L182.281 113.78L199.943 115.343Z" fill="#504F60"/>
<path d="M147.591 115.122L91.7343 105.209L89.5687 116.596L115.173 119.784L123.057 120.81L144.743 116.369L147.591 115.122Z" fill="#9C9CA1"/>
<path d="M118.677 120.24L146.662 114.77C146.802 114.742 146.946 114.747 147.084 114.784C147.222 114.821 147.35 114.889 147.46 114.984C147.57 115.078 147.658 115.197 147.718 115.331C147.779 115.466 147.81 115.612 147.809 115.76V115.76C147.81 115.996 147.731 116.223 147.587 116.404C147.442 116.585 147.241 116.708 147.019 116.751L119.69 122.072L118.677 120.24Z" fill="#9C9CA1"/>
<path d="M130.817 103.039C131.688 102.955 132.571 102.812 133.355 102.411C134.321 101.911 135.073 101.049 135.967 100.414C137.934 99.008 140.565 98.8192 142.819 99.6266C145.074 100.434 146.955 102.164 148.273 104.229C149.148 105.604 149.805 107.36 149.187 108.879C148.974 109.343 148.707 109.777 148.391 110.172L146.78 112.362C146.473 112.822 146.105 113.234 145.686 113.585C145.083 114.041 144.334 114.228 143.596 114.34C141.635 114.638 139.64 114.469 137.663 114.605C134.269 114.84 130.954 115.977 127.552 115.939C125.597 115.917 123.667 115.507 121.757 115.098L113.301 113.29C111.829 112.976 110.166 112.518 109.472 111.13C109.161 110.506 109.103 109.783 109.067 109.08C108.966 107.143 109.067 104.99 110.357 103.594C111.57 102.284 113.488 101.87 114.937 100.902C116.711 99.715 117.296 100.099 119.166 100.991C122.814 102.708 126.828 103.414 130.817 103.039Z" fill="#DAB893"/>
<path d="M164.772 100.285C162.4 101.24 160.014 102.198 157.53 102.766C153.365 103.72 149.007 103.57 144.875 104.66C142.692 105.239 140.522 106.171 138.28 105.982C137.277 105.898 136.309 105.58 135.334 105.339C129.853 103.933 123.623 104.389 119.172 108.005C117.65 109.24 116.404 110.781 115.274 112.424C115.032 112.779 114.868 113.185 114.795 113.613C114.722 114.041 114.74 114.481 114.849 114.901C114.958 115.321 115.155 115.71 115.426 116.042C115.697 116.374 116.034 116.639 116.415 116.819C118.146 117.647 120 118.161 121.898 118.339C124.434 118.572 126.982 118.199 129.505 117.825C133.249 117.273 136.995 116.718 140.729 116.098C142.07 115.875 143.41 115.644 144.759 115.467C154.462 114.192 164.342 115.742 174.07 114.678C175.054 114.569 176.054 114.429 176.949 113.993C179.213 112.888 180.333 109.975 179.866 107.416C179.398 104.857 177.594 102.73 175.423 101.424C173.603 100.326 171.64 99.8817 169.614 99.4157C167.732 98.9597 166.585 99.5623 164.772 100.285Z" fill="#E1BE98"/>
<path opacity="0.1" d="M185.584 84.9874C186.654 86.4457 186.882 88.4021 186.766 90.228C186.65 92.0539 186.233 93.8597 186.171 95.6936C186.086 98.2085 186.67 100.715 186.571 103.222C186.502 104.976 186.102 106.695 185.628 108.378C185.07 110.365 184.263 112.5 182.499 113.454C180.157 114.722 175.247 114.009 172.784 115.001C173.008 113.549 175.156 111.446 175.38 109.993C175.535 108.989 175.691 107.957 175.525 106.95C175.312 105.667 174.588 104.528 173.728 103.58C172.361 102.071 170.576 100.936 168.615 100.567C166.654 100.197 161.853 100.5 160.285 101.788C160.092 100.458 163.685 99.1767 164.948 98.8895C165.578 98.7428 166.301 98.8252 166.805 98.4094C167.771 97.622 167.069 96.0532 167.116 94.7937C167.152 93.7894 167.717 92.8694 167.831 91.8651C168.024 90.2581 167.015 88.6211 167.411 87.0442C167.558 86.4617 167.885 85.9495 168.111 85.3951C168.798 83.6978 168.497 81.7614 168.13 79.9576C167.902 78.8247 167.68 77.5472 168.286 76.581C168.849 75.6791 170.444 78.891 171.466 78.7424C174.841 78.2502 177.895 75.649 180.621 77.7782C182.01 78.8629 182.192 79.9877 182.746 81.5364C183.285 83.0108 184.682 83.7661 185.584 84.9874Z" fill="black"/>
<path d="M186.163 84.9874C187.234 86.4457 187.462 88.4021 187.346 90.228C187.23 92.0539 186.813 93.8597 186.751 95.6936C186.666 98.2085 187.249 100.715 187.151 103.222C187.081 104.976 186.681 106.695 186.208 108.378C185.65 110.365 184.842 112.5 183.078 113.454C180.737 114.722 175.826 114.009 173.363 115.001C173.587 113.549 175.736 111.446 175.96 109.993C176.114 108.989 176.271 107.957 176.105 106.95C175.892 105.667 175.168 104.528 174.308 103.58C172.94 102.071 171.155 100.936 169.194 100.567C167.234 100.197 162.433 100.5 160.864 101.788C160.671 100.458 164.264 99.1767 165.528 98.8895C166.158 98.7428 166.88 98.8252 167.384 98.4094C168.35 97.622 167.649 96.0532 167.695 94.7937C167.732 93.7894 168.296 92.8694 168.41 91.8651C168.603 90.2581 167.595 88.6211 167.991 87.0442C168.138 86.4617 168.464 85.9495 168.69 85.3951C169.378 83.6978 169.077 81.7614 168.71 79.9576C168.482 78.8247 168.259 77.5472 168.866 76.581C169.428 75.6791 170.527 75.3377 171.549 75.187C174.971 74.7058 178.438 75.6358 181.208 77.7782C182.597 78.8629 182.779 79.9877 183.333 81.5364C183.865 83.0108 185.261 83.7661 186.163 84.9874Z" fill="#4C4981"/>
<path d="M58.3408 75.4702L68.8441 115.833C68.973 116.327 69.2437 116.769 69.6203 117.1C69.9968 117.43 70.4613 117.634 70.9518 117.683L118.227 122.405C118.613 122.444 119.001 122.386 119.36 122.236C119.72 122.087 120.039 121.85 120.292 121.545C120.546 121.241 120.725 120.877 120.815 120.486C120.906 120.095 120.905 119.686 120.812 119.296L109.31 70.6092C109.173 70.0305 108.843 69.521 108.379 69.1713C107.915 68.8215 107.347 68.6542 106.775 68.699L60.491 72.2985C60.1356 72.3272 59.7907 72.4371 59.4809 72.6204C59.171 72.8036 58.9039 73.0557 58.6986 73.3586C58.4932 73.6616 58.3547 74.0079 58.2928 74.3729C58.231 74.7379 58.2474 75.1126 58.3408 75.4702V75.4702Z" fill="#9C9CA1"/>
<path d="M152.055 83.3463C154.925 83.3463 157.252 80.8956 157.252 77.8726C157.252 74.8496 154.925 72.399 152.055 72.399C149.185 72.399 146.859 74.8496 146.859 77.8726C146.859 80.8956 149.185 83.3463 152.055 83.3463Z" fill="white"/>
<path d="M156.323 67.8875C156.323 67.8875 157.418 71.2741 154.186 72.6983L153.773 73.4495L155.797 75.5265C155.797 75.5265 158.293 70.792 158.023 69.1107C158.023 69.1107 157.636 67.4034 156.323 67.8875Z" fill="white"/>
<path d="M152.652 83.3463C155.42 83.3463 157.663 81.0134 157.663 78.1357C157.663 75.2581 155.42 72.9252 152.652 72.9252C149.885 72.9252 147.641 75.2581 147.641 78.1357C147.641 81.0134 149.885 83.3463 152.652 83.3463Z" fill="#4469AD"/>
<path d="M158.048 69.8801L157.252 68.5142L156.093 68.3434C156.34 63.846 155.218 62.5062 155.218 62.5062L154.957 62.4801L153.821 62.3656L151.684 60.0596V59.4048C154.686 59.7764 156.346 61.2588 157.242 62.9963C158.826 66.0455 158.048 69.8801 158.048 69.8801Z" fill="#4469AD"/>
<path opacity="0.1" d="M154.967 61.6525V62.4801L153.831 62.3656L151.694 60.0596C151.694 60.0596 155 60.8289 154.967 61.6525Z" fill="black" stroke="#4C4981" stroke-miterlimit="10"/>
<path opacity="0.1" d="M158.048 69.88L157.252 68.5141V63.0043C158.826 66.0455 158.048 69.88 158.048 69.88Z" fill="black" stroke="#4C4981" stroke-miterlimit="10"/>
<path d="M143.393 80.2776C144.726 79.4772 144.668 76.7785 143.264 74.2498C141.86 71.7212 139.641 70.3201 138.308 71.1205C136.975 71.9209 137.032 74.6197 138.436 77.1483C139.84 79.677 142.059 81.078 143.393 80.2776Z" fill="white"/>
<path d="M141.602 75.2573C143.007 77.7862 144.73 79.4755 143.397 80.279C142.064 81.0825 138.181 80.6807 136.777 78.1498C135.372 75.6189 136.647 72.1237 137.98 71.3203C139.313 70.5168 140.196 72.7223 141.602 75.2573Z" fill="#4469AD"/>
<path opacity="0.1" d="M154.107 57.0386C154.107 65.1195 148.789 72.9072 141.017 72.9072C137.284 72.9072 133.705 71.3655 131.066 68.6212C128.426 65.8769 126.944 62.1549 126.944 58.2739C126.944 54.3929 128.426 50.6709 131.066 47.9266C133.705 45.1824 137.284 43.6407 141.017 43.6407C148.789 43.6487 154.107 48.9556 154.107 57.0386Z" fill="black"/>
<path d="M141.017 72.5134C148.789 72.5134 155.09 65.9619 155.09 57.8802C155.09 49.7985 148.789 43.2469 141.017 43.2469C133.244 43.2469 126.944 49.7985 126.944 57.8802C126.944 65.9619 133.244 72.5134 141.017 72.5134Z" fill="#E1BE98"/>
<path d="M139.781 51.3962C141.455 52.0369 142.446 53.8367 143.949 54.8391C146.074 56.2451 148.841 55.8816 151.267 55.1866C152.619 54.8029 154.033 54.3349 155.365 54.7607C155.56 54.8508 155.776 54.8828 155.988 54.8531C156.278 54.7667 156.421 54.4333 156.516 54.136C158.162 49.034 157.422 43.255 154.938 38.5346C154.296 37.3173 153.527 36.1402 152.469 35.2945C151.634 34.6297 150.653 34.1938 149.664 33.8222C147.856 33.1472 145.987 32.6672 144.085 32.39C143.749 32.3265 143.406 32.315 143.067 32.3558C142.601 32.4342 142.184 32.6953 141.768 32.9283C139.99 33.9198 138.017 34.4769 136 34.5574C133.295 34.6638 130.205 34.001 128.12 35.8048C125.609 37.9681 126.235 42.1884 124.606 45.125C123.528 47.0674 121.45 48.4775 121.108 50.6891C121.019 51.3651 121.06 52.0527 121.229 52.7119C122.025 56.1146 125.193 58.75 128.57 58.8122C129.089 58.8534 129.608 58.7427 130.069 58.4929C130.371 58.2784 130.638 58.0146 130.859 57.7115C133.071 54.9877 135.602 49.7973 139.781 51.3962Z" fill="#444053"/>
<path opacity="0.1" d="M156.516 52.6556C156.421 52.9529 156.278 53.2863 155.988 53.3727C155.776 53.4024 155.56 53.3704 155.364 53.2803C154.033 52.8545 152.612 53.3225 151.269 53.7061C148.841 54.4012 146.069 54.7728 143.951 53.3586C142.446 52.3543 141.457 50.5465 139.78 49.9158C135.602 48.3088 133.071 53.5073 130.854 56.2311C130.632 56.5341 130.366 56.798 130.063 57.0124C129.602 57.2623 129.083 57.373 128.564 57.3318C125.199 57.2696 122.029 54.6342 121.223 51.2314C121.179 51.0306 121.14 50.8297 121.111 50.6288C121.111 50.6469 121.111 50.663 121.102 50.6811C121.013 51.357 121.054 52.0447 121.223 52.7038C122.019 56.1065 125.189 58.7419 128.564 58.8042C129.083 58.8453 129.602 58.7347 130.063 58.4848C130.366 58.2704 130.632 58.0065 130.854 57.7034C133.071 54.9797 135.602 49.7892 139.78 51.3881C141.457 52.0289 142.446 53.8287 143.951 54.831C146.076 56.2371 148.841 55.8735 151.269 55.1785C152.621 54.7949 154.033 54.3268 155.364 54.7527C155.56 54.8428 155.776 54.8748 155.988 54.8451C156.278 54.7587 156.421 54.4253 156.516 54.128C157.18 52.0404 157.473 49.8446 157.381 47.6479C157.324 49.3516 157.033 51.038 156.516 52.6556V52.6556Z" fill="black"/>
</g>
<defs>
<clipPath id="clip0">
<rect width="221" height="124" fill="white"/>
</clipPath>
</defs>
</svg>
